<?xml version="1.0" encoding="UTF-8" standalone="no"?>
<!-- Created with Inkscape (http://www.inkscape.org/) -->

<svg
   xmlns:dc="http://purl.org/dc/elements/1.1/"
   xmlns:cc="http://creativecommons.org/ns#"
   xmlns:rdf="http://www.w3.org/1999/02/22-rdf-syntax-ns#"
   xmlns:svg="http://www.w3.org/2000/svg"
   xmlns="http://www.w3.org/2000/svg"
   xmlns:sodipodi="http://sodipodi.sourceforge.net/DTD/sodipodi-0.dtd"
   xmlns:inkscape="http://www.inkscape.org/namespaces/inkscape"
   width="138.42635mm"
   height="256.54944mm"
   viewBox="0 0 138.42635 256.54944"
   version="1.1"
   id="svg6921"
   inkscape:version="0.92.3 (2405546, 2018-03-11)"
   sodipodi:docname="chaussetterouge.svg">
  <defs
     id="defs6915" />
  <sodipodi:namedview
     id="base"
     pagecolor="#ffffff"
     bordercolor="#666666"
     borderopacity="1.0"
     inkscape:pageopacity="0.0"
     inkscape:pageshadow="2"
     inkscape:zoom="0.49497475"
     inkscape:cx="-358.40264"
     inkscape:cy="459.6448"
     inkscape:document-units="mm"
     inkscape:current-layer="layer1"
     showgrid="false"
     inkscape:window-width="1600"
     inkscape:window-height="845"
     inkscape:window-x="0"
     inkscape:window-y="31"
     inkscape:window-maximized="1" />
  <metadata
     id="metadata6918">
    <rdf:RDF>
      <cc:Work
         rdf:about="">
        <dc:format>image/svg+xml</dc:format>
        <dc:type
           rdf:resource="http://purl.org/dc/dcmitype/StillImage" />
        <dc:title />
      </cc:Work>
    </rdf:RDF>
  </metadata>
  <g
     inkscape:label="Calque 1"
     inkscape:groupmode="layer"
     id="layer1"
     transform="translate(-39.454113,-12.372641)">
    <g
       style="display:inline"
       transform="matrix(5.5342947,0,0,5.5342947,1225.4056,-1019.1552)"
       id="g4973">
      <g
         id="g4965">
        <path
           style="opacity:1;fill:#cf2526;fill-opacity:1;stroke:none;stroke-width:0.2;stroke-linecap:butt;stroke-linejoin:miter;stroke-miterlimit:4;stroke-dasharray:none;stroke-opacity:1"
           d="m -196.70827,200.6515 -13.39083,5.2591 c 1.05895,2.58673 1.94447,5.14672 2.93891,7.77818 0,0 0.50822,1.72358 -0.17679,3.64602 -0.68501,1.92244 -2.77371,3.54163 -3.99957,5.81153 -1.22586,2.2699 -1.68398,3.63335 -0.0697,7.22867 1.61428,3.59532 7.53437,1.94824 9.22227,1.1029 1.6879,-0.84533 2.68529,-3.45511 4.87657,-4.74529 1.48955,-1.01608 5.02616,-1.81073 6.41678,-2.99823 2.95501,-2.4176 0.96478,-7.52514 -0.18749,-10.09375 -0.8988,-1.95521 -2.20313,-4.10938 -3.23438,-6.51563 -1.03125,-2.40625 -2.39577,-6.4735 -2.39577,-6.4735 z"
           id="path4957"
           inkscape:connector-curvature="0"
           sodipodi:nodetypes="ccczzzzcccsc" />
        <path
           style="opacity:1;fill:#f7f6f4;fill-opacity:1;stroke:#f7f6f4;stroke-width:0.30000001;stroke-linecap:butt;stroke-linejoin:miter;stroke-miterlimit:4;stroke-dasharray:none;stroke-opacity:1"
           d="m -211.42493,223.47779 c 0,0 -1.12695,1.43631 -0.97227,3.60182 0.15468,2.16552 0.8102,3.10673 1.22292,3.79913 0.41272,0.6924 1.85518,1.68456 3.84616,1.71501 1.99098,0.0305 3.98047,-0.76562 4.44922,-0.98437 0.46875,-0.21875 0.30078,-2.1875 -0.23047,-3.5625 -0.53125,-1.375 -1.48438,-2.34375 -1.48438,-2.34375 1.18418,-0.38993 2.05644,-1.19267 2.10937,-2.21876 0.0529,-1.02608 -0.32812,-1.70312 -1.12499,-1.90624 -0.79688,-0.20313 -1.45313,0.0469 -1.79688,0.39063 -0.34375,0.34375 -0.78125,1.17187 -0.625,1.85937 0,0 -1.41161,-0.2366 -2.31249,-0.32813 -0.90089,-0.0915 -3.08119,-0.0222 -3.08119,-0.0222 z"
           id="path4959"
           inkscape:connector-curvature="0"
           sodipodi:nodetypes="cszzszczczczcc" />
        <path
           style="opacity:1;fill:#f7f6f4;fill-opacity:1;stroke:#f7f6f4;stroke-width:0.1;stroke-linecap:butt;stroke-linejoin:miter;stroke-miterlimit:4;stroke-dasharray:none;stroke-opacity:1"
           d="m -198.30468,218.76954 c 0,0 0.0312,1.375 0.60937,3.09375 0.57812,1.71875 2.29688,3.89062 2.29688,3.89062 0,0 4.74219,-1.3828 5.5,-3.17187 0.75781,-1.78907 0.60938,-2.85938 0.40625,-4.23438 -0.20313,-1.375 -1.125,-3.50391 -1.125,-3.50391 z"
           id="path4961"
           inkscape:connector-curvature="0"
           sodipodi:nodetypes="czczzcc" />
        <path
           style="fill:#f7f6f4;fill-opacity:1;stroke:#f7f6f4;stroke-width:0.1;stroke-linecap:butt;stroke-linejoin:miter;stroke-miterlimit:4;stroke-dasharray:none;stroke-opacity:1"
           d="m -210.0991,205.9106 c 0,0 -0.5301,0.20535 -1.17115,-0.11048 -0.64105,-0.31583 -1.41421,-0.90598 -2.18761,-2.85053 -0.83027,-1.69589 -1.10466,-3.24741 -0.30936,-4.08796 0.79622,-0.58382 12.9268,-5.59056 12.9268,-5.59056 0,0 -1.01758,-1.15728 -1.25954,-2.54116 -0.40736,-2.2793 -0.008,-3.65267 1.50505,-4.19957 1.51346,-0.54689 2.58024,1.49166 2.69608,2.04432 0.11585,0.55265 0.0687,1.26756 -0.30556,2.20928 -0.37432,0.94171 -1.3986,2.06729 -1.3986,2.06729 0,0 3.13779,1.4805 3.46925,4.81716 0.0658,1.9851 -0.20271,2.16374 -0.57453,2.98311 -0.22338,0.13187 -13.39083,5.2591 -13.39083,5.2591 z"
           id="path4963"
           inkscape:connector-curvature="0"
           sodipodi:nodetypes="czcccczzzcccc" />
      </g>
      <g
         id="g4971">
        <path
           style="fill:#f7f6f4;fill-opacity:1;stroke:#f7f6f4;stroke-width:0.1;stroke-linecap:butt;stroke-linejoin:miter;stroke-miterlimit:4;stroke-dasharray:none;stroke-opacity:1"
           d="m -193.14453,209.69922 c 0,0 -1.13672,-0.24609 -1.82422,0.082 -0.6875,0.32813 -1.1875,0.75 -1.1875,1.5 0,0.75 0.375,1.28125 0.75,1.51563 0.375,0.23437 1.17188,0.32812 1.75,0.0781 0.57813,-0.25 1.0625,-0.59375 1.26563,-1 0.20312,-0.40625 0.10937,-0.52343 0.10937,-0.52343 z"
           id="path4967"
           inkscape:connector-curvature="0"
           sodipodi:nodetypes="ccsccccc" />
        <path
           style="fill:#f7f6f4;fill-opacity:1;stroke:#f7f6f4;stroke-width:0.1;stroke-linecap:butt;stroke-linejoin:miter;stroke-miterlimit:4;stroke-dasharray:none;stroke-opacity:1"
           d="m -208.41015,210.19141 c 0,0 0.0664,-0.61328 0.84765,-1.22266 1.45117,-0.93854 2.76402,-0.48125 3.15625,0.53125 0.39223,1.0125 -0.0859,1.42187 -0.35937,1.71875 -0.27346,0.29688 -1.01172,0.44529 -1.60547,0.47656 -0.59375,0.0313 -1.46094,0.0508 -1.46094,0.0508 z"
           id="path4969"
           inkscape:connector-curvature="0"
           sodipodi:nodetypes="cczzzcc" />
      </g>
    </g>
  </g>
</svg>
