<?xml version="1.0" encoding="utf-8"?>
<!-- Generator: Adobe Illustrator 22.0.0, SVG Export Plug-In . SVG Version: 6.00 Build 0)  -->
<svg version="1.1" id="Calque_1" xmlns="http://www.w3.org/2000/svg" xmlns:xlink="http://www.w3.org/1999/xlink" x="0px" y="0px"
	 viewBox="0 0 432 432" style="enable-background:new 0 0 432 432;" xml:space="preserve">
<style type="text/css">
	.st0{fill:#BE1622;}
	.st1{fill:#BA874D;}
	.st2{fill:#008D36;}
	.st3{fill:#634E42;}
	.st4{fill:#7D4E24;}
	.st5{fill:#E6332A;}
	.st6{fill:#E30613;}
	.st7{fill:#EDEDED;}
	.st8{fill:#3AAA35;}
	.st9{fill:#3C3C3B;}
	.st10{fill:#575756;}
	.st11{fill:#82AFD6;}
	.st12{fill:#1D71B8;}
	.st13{fill:#36A9E1;}
	.st14{fill:#066938;}
	.st15{fill:#B9B8B9;}
	.st16{fill:#A3A2A3;}
	.st17{fill:#D9D8D9;}
	.st18{fill:#CDCBCC;}
	.st19{fill:#80A1C5;}
	.st20{fill:#F8C3C4;}
	.st21{fill:#739AC0;}
	.st22{fill:#6391BA;}
	.st23{fill:#B093C3;}
	.st24{fill:#9E79B5;}
	.st25{fill:#BA9BC9;}
	.st26{fill:#F2F2F2;}
	.st27{fill:#FFFFFF;}
	.st28{fill:#E8E6E6;}
	.st29{fill:#7097B8;}
	.st30{fill:#95C11F;}
	.st31{fill:#47382F;}
	.st32{fill:#00A19A;}
	.st33{fill:#8F683B;}
	.st34{fill:#A4292F;}
	.st35{fill:#C1292E;}
	.st36{fill:#C49253;}
	.st37{fill:#AD8048;}
	.st38{fill:#D9A84A;}
	.st39{fill:#056734;}
	.st40{fill:#E20D18;}
	.st41{fill:#8CA6CA;}
	.st42{fill:#F9B03D;}
	.st43{fill:#808181;}
	.st44{fill:#E00825;}
	.st45{fill:#1861A9;}
	.st46{fill:#109F3D;}
	.st47{fill:#F39200;}
	.st48{fill:#936037;}
	.st49{fill:#683C11;}
</style>
<g>
	<g>
		<path class="st5" d="M270.4,312.8c5.9,2.8,12.2-4.5,5.7-9.1C270.1,299.5,260,307.9,270.4,312.8z"/>
		<path class="st5" d="M90.1,339.8c-1.2-5.3-6.2-6.6-9.4-3.4C74.5,342.3,92.6,350.7,90.1,339.8z"/>
		<path class="st5" d="M96.5,118.4c3.1-3.3,0.4-8.5-4.4-9.2C79.2,107.3,89.7,125.8,96.5,118.4z"/>
		<path class="st5" d="M306.2,90.9c3.8-0.5,5-3.8,3.4-5.8C300.3,73.8,293.6,92.6,306.2,90.9z"/>
		<path class="st5" d="M233.5,267.3c0.8-1.8,0.1-4.1-1.4-5.6c-4-4-10.8,0.8-8.7,4.8C225,269.7,231.4,272.1,233.5,267.3z"/>
		<path class="st5" d="M353.3,242.1c-10.2,3,0.4,13.7,7,6.1C362.7,245.4,358.7,240.5,353.3,242.1z"/>
		<path class="st5" d="M349,280.5c-9.7-9.7-18.1,6.5-2.4,5.9C349.8,286.2,351.3,282.7,349,280.5z"/>
		<path class="st5" d="M106.1,84.5c-2.8-2.5-9.7,2-8.1,5.1C103.1,99.9,112.5,90.4,106.1,84.5z"/>
		<path class="st5" d="M105.4,127.6c-5.8,7.7,13.2,10.4,8.5,0.7C112.7,125.8,109.2,122.6,105.4,127.6z"/>
		<path class="st5" d="M103.6,299.2c0.5-5.6-8.1-7.7-10.9-3.6C88.4,301.8,102.9,305.9,103.6,299.2z"/>
		<path class="st5" d="M303.7,114.2c6.4,2.7,11.9-8.8,1-9.8C299,103.9,293.2,109.8,303.7,114.2z"/>
		<path class="st5" d="M327.8,125.4C327.8,125.4,327.8,125.4,327.8,125.4c7.1,5.4,11.4-3.1,6.4-7.4
			C329.6,114,321.2,120.3,327.8,125.4z"/>
		<path class="st5" d="M249.1,68.7c-9.6,5,4.3,10.9,7.5,6C258,72.5,254.6,65.9,249.1,68.7z"/>
		<path class="st5" d="M334.8,193.1c5.8,2.5,11.1-0.8,8.7-5.4C339.2,179.4,325.8,189.3,334.8,193.1z"/>
		<path class="st5" d="M84.9,141.9c-1.7-6.8-12.2-3-11.3,2C74.8,150.3,87.3,151.8,84.9,141.9z"/>
		<path class="st5" d="M209.1,275.2c2.6,4.7,9.5,4.4,9.7,0.7C219.4,263.7,205.9,269.2,209.1,275.2z"/>
		<path class="st5" d="M81,257.3c-6.5,8.4,19.2,8.2,7.2-1.3C86,254.2,82.7,255,81,257.3z"/>
		<path class="st5" d="M335.9,150.2c-0.5-3.4-3.4-5.4-7-3.5C318.6,152.1,337.4,160.8,335.9,150.2z"/>
		<path class="st5" d="M284.4,65.9c-5.3-4-13.1,3.7-5.6,7.1C285.3,76.1,289,69.4,284.4,65.9z"/>
		<path class="st5" d="M178.1,134.4c-13.6-1.3-1.6,14.5,3.2,7.3C183.6,139.4,181,134.7,178.1,134.4z"/>
		<path class="st5" d="M227.6,286.4c10.8,3.4,4.4-14.9-3.9-7.9C221.4,280.3,223.3,285.1,227.6,286.4z"/>
	</g>
	<g>
		<path class="st39" d="M135,244.1c0,0.1,0,0.2-0.1,0.3c-0.2,0.2-0.6,0.3-0.9,0.3c-0.7,0-1.4,0-2.1-0.1c-0.4,0-0.8,0-1.2-0.1
			c-0.2,0-1.1-0.2-1.2-0.1c-1,1.1-2.8,2.1-4.4,3c-1.4,0.8-3.4,2-5.6,2.8c-2.2,0.8-4.6,1.4-6.7,1c-1.8-0.3-2.1-0.6-0.9-1.4
			c1.3-0.9,4.9-0.8,6.6-1.4c1.8-0.6,3.5-1.5,5-2.5c2.8-1.9,3.3-1.9-0.6-2.8c-1.2-0.3-2.3-0.7-3.4-0.9c-0.2-0.1-0.4-0.1-0.5-0.1
			c-0.9,0.4-1.8,1.2-2.7,1.5c-2.2,0.8-4.3,1.5-6.8,2c-0.6,0.1-2.8,0.6-5.2,0.8c-2.3,0.2-4.8,0-5.5-0.8c-1-1.2,1.3-1.2,3.9-1.3
			c2.6-0.1,5.5-0.1,6.2-0.3c0.7-0.2,2.7-0.6,4.3-1.1c1.6-0.5,2.9-1.2,2.5-1.6c-0.5-0.5-1.6-0.7-2.3-0.9c-0.4-0.1-0.9-0.2-1.4-0.3
			c-0.5-0.1-1-0.4-1.5-0.4c-0.3,0-0.5,0.1-0.8,0.1c-0.6,0.1-1.1,0.2-1.7,0.3c-1,0.2-2.2,0.3-3.3,0.5c-2.9,0.3-6.1,0.4-9.4-0.4
			c-0.7-0.2-2.6-0.6-4.3-1.3c-1.7-0.7-3.1-1.8-2.8-2.7c0.1-0.5,1.3,0.2,1.7,0.3c0.7,0.3,3,1.5,3.7,1.7c2.3,0.8,4.7,1.1,6.8,1.2
			c1.8,0.1,3.5-0.1,5.1-0.4c1.3-0.2,2.3-0.1,2-0.5c-0.3-0.5-3-1.4-3.7-1.7c-1.3-0.7-1.8-1.1-2.3-1.3c-0.5-0.2-1.1-0.1-2.6,0
			c-2.2,0.1-4.7-0.1-7.3-0.7c-2.6-0.7-5.2-1.9-7.3-3.7c-1.5-1.2-2.2-1.8-0.9-2.3c0.3,0,0.9,0.6,1.2,0.7c1.1,0.4,2.2,1.1,3.4,1.8
			c1.1,0.7,2.3,1.3,3.5,1.7c1.4,0.4,2.8,0.6,4.1,0.7c0.3,0,1.1,0.2,1.9,0.2c0.7,0,1.3-0.1,1-0.6c-0.1-0.1-0.3-0.3-0.4-0.4
			c-0.4-0.4-0.9-0.8-1.3-1.1c-0.6-0.5-1.2-0.9-2-1.1c-0.5-0.2-1-0.4-1.4-0.5c-2.5-0.6-5-1.6-7.4-3c-0.4-0.2-2.6-1.4-4.4-2.9
			c-1.9-1.5-3.5-3.1-3.1-3.8c0.4-0.5,1,0.1,1.4,0.2c2.2,0.9,5.1,4.3,7.6,5.6c0.2,0.1,0.4,0.2,0.5,0.3c0.9,0.5,1.8,1,2.7,1.4
			c0.5,0.2,0.9,0.3,1.4,0.5c0.1,0,0.3,0.1,0.5,0.1c0.1,0.1,0.5,0.2,0.5,0.1c0-0.1,0.1-0.1,0-0.2c-0.1-0.3-0.4-0.5-0.6-0.8
			c-0.2-0.3-0.4-0.6-0.6-0.9c-0.5-0.6-0.9-1.1-1.4-1.7c-0.1-0.1-0.2-0.3-0.3-0.4c-0.5-0.2-1-0.4-1.2-0.5c-2.3-1-4.5-2.5-6.6-4.3
			c-2-1.7-4-3.6-5.9-5.6c-0.8-0.8-3.5-3.5-1.2-3.2c0.9,0.1,2.4,2.3,3.1,2.9c2.7,2.7,6.3,6.7,9.7,7.8c0.3,0.1,0.5,0.2,0.6,0.2
			c0-0.1-0.2-0.3-0.3-0.5c-0.6-1.1-1.3-2.2-1.9-3.5c-0.9-2,0-1-1.8-2.1c-1-0.8-2.1-1.6-3.2-2.4c-1.9-1.6-3.7-3.4-5.3-5.5
			c-0.9-1.1-3.4-3.3-3.6-4.6c-0.4-1.9,0.5-1.1,1.6-0.3c1.6,1.3,3.2,4,4.6,5.6c1.5,1.6,3.1,3.1,4.8,4.4c-0.1-0.2,0.5,0.4,1,0.7
			c-0.1-0.2-0.1-0.3-0.1-0.3c-0.2-1.3-1.3-2.9-1.7-4.1c-0.2-0.7-0.3-1.1-0.4-1.4c-1.3-1.4-3.4-2.6-4.7-4.2c-0.5-0.6-2.3-2.5-3.8-4.6
			c-1.5-2-2.8-4.2-2.7-5c0.4-1.9,1.9,0.6,2.4,1.3c2.4,3.3,4.4,7.1,7.5,9.5c0.1,0.1,0.2,0.1,0.2,0.2c-0.1-0.1-0.2-0.2-0.2-0.5
			c-0.1-0.6-0.4-1.3-0.6-1.9c-0.3-0.9-0.7-1.9-0.9-2.8c0,0-0.4-1-0.4-1.4c-1.3-1.8-3.3-3.3-4.7-5.1c-0.3-0.3-1.5-1.9-2.4-3.5
			c-0.9-1.6-1.5-3.1-0.6-3.1c0.5-0.1,0.8,0.7,1.3,1.1c2.1,2.1,3.2,5.9,5.6,7.8c0.9,0.7,0.1,0.3-0.2-1c-0.4-1.3-0.4-2.9-0.8-4.2
			c-0.1-0.2-0.4-0.5-1-1.1c-0.7-0.6-1.2-1.3-1.7-2c-0.4-0.4-1.6-2.2-2.6-3.9c-1-1.7-1.6-3.5-1-3.6c0.8-0.2,1.6,1,2.4,2.5
			c0.8,1.5,1.6,3.4,2.3,4.6c0.2,0.1,0.3,0.4,0.5,0.6l0.5,0.5c0.1,0,0.2,0,0.2,0c-0.1,0-0.3-0.8-0.3-0.9c-0.2-0.8-0.4-1.6-0.5-2.5
			c0-0.3-0.1-0.7-0.1-1c0-0.1,0.1-0.2,0-0.4c-0.1-0.4-0.3-0.7-0.5-1c-0.2-0.4-0.5-0.8-0.8-1.2c-0.5-0.7-1-1.5-1.5-2.3
			c-0.3-0.5-0.6-1.5-0.6-2.2c0-0.6,0.2-0.9,1.1-0.2c0.4,0.3,0.6,1.2,0.8,1.6c0.5,0.8,0.8,1.6,1.3,2.3l0,0.1c0.2-1.9-0.2-4,0.1-5.7
			c0.1-0.8,0.4-1.4,0.7-1.6c0.3-0.2,0.6,0.1,1.1,1c0.3,0.6,0.3,1.5,0.3,2.5c0,1-0.1,2.3-0.1,3.4c0.5-1,1.2-1.8,2.1-1.5
			c0.5,0.2,1,1,1,1.4c0.3,1.6-2,3.3-2.5,4.8c-0.1,0.8-0.1,1.9,0.2,3.1c1.1-2.4,3.4-6.6,4.2-2.7c0.6,2.3-2.7,4.7-3.2,6.6
			c-0.3,1.1,0.2,2.9,0.7,4.5c0.5-1,0.9-2.1,1.2-3.3c0.2-0.8,0.8-4.2,1.5-4.5c0.7-0.3,1.5,0.3,1.9,1.1c0.9,1.7-0.8,4.6-1.3,6.3
			c-0.4,1.2-0.9,2-1.2,2.9c-0.4,0.9-0.6,1.7-0.3,3.1c0.2,0.7,0.4,1.5,0.7,2.2c0.4-1,0.8-1.9,1.1-2.9c0.1-0.3,0.6-1.8,1-3.2
			c0.5-1.4,0.9-2.6,0.9-2.6c0.7-0.3,1.4,0,1.9,0.8c0.6,1,0.3,2.5-0.3,3.9c-0.5,1.5-1.3,2.9-1.6,3.7c-0.5,1.3-1.6,3.1-1.5,4.7
			c0,1.2,1,3,1.8,4.5c0.6-1.5,1.2-3,1.6-4.7c0.1-0.4,0.3-1.9,0.5-3.2c0.2-1.4,0.5-2.6,0.8-2.7c0.7-0.2,1.6,0.2,2,0.9
			c0.6,1,0.5,2.7,0.1,4.3c-0.4,1.7-1,3.3-1.3,4.1c-0.7,2.3-2,3.8-1.1,6.3l0.9,1.6c0.1-1.8,0.4-4.7,1.1-6.8c0.7-2.1,1.6-3.3,2.8-1.8
			c1.3,1.7-0.4,4.9-0.7,6.6c-0.3,1.5-1.2,4.2-0.8,5.8c0.2,0.9,1.2,2.1,2.1,3.1c0.1-1.8,0.2-3.4,0.3-5.1c0.1-1.3-0.1-3.5,0.4-4.5
			c0.5-0.9,1.2-1.3,2.1-0.2c0.6,0.6,0.6,1.7,0.5,2.8c-0.1,1.1-0.3,2.3-0.3,3c0,1,0,2.1-0.1,3.2c0,0.8-0.5,2.5-0.1,3.2
			c0.5,1.2,2.2,2.5,3.8,3.4c-0.5-2-0.8-3.9-1.1-5.7c-0.1-0.5-0.3-1.4-0.5-2.2c-0.1-0.9-0.2-1.7,0.1-2.1c0.5-0.7,1.4-0.7,2-0.2
			c0.7,0.5,0.8,1.7,1,2.9c0.1,1.3,0.3,2.6,0.5,3.5c0.5,1.9,0.6,4.8,2.4,6.2c0.9,0.8,2.4,1.4,3.8,1.9c-0.6-2.1-1.3-4.1-2.2-6.1
			c-0.2-0.5-0.9-1.5-1.5-2.5c-0.6-1-0.9-2-0.8-2.4c0.2-0.8,1.1-1.1,2-0.6c0.9,0.5,1.6,2,2.4,3.6c0.7,1.6,1.4,3.4,1.8,4.3
			c0.5,1.1,0.8,4.2,1.7,5.1c0.6,0.6,3,1.3,4.8,1.7c-0.4-1.8-1-3.6-1.9-5.4c-0.6-1.3-1.3-2.5-2.2-3.7c0,0-0.4-0.5-0.7-0.9
			c-0.4-0.5-0.7-0.9-0.7-0.9c0.1-0.9,0.7-1.3,1.8-1c2.8,0.8,5.2,6.9,5.9,8.9c0.4,1.1,0.5,3.1,1.3,3.9c0.8,0.7,3.5,1.1,5.4,1.4
			c-0.7-3.8-2.1-7.5-4.6-10.7c-0.9-1.1-2.8-2.7-0.3-2.9c2.1-0.1,3.5,2.8,4.4,4.1c1,1.7,1.9,3.6,2.6,5.5c0.4,1,0.5,3.8,1.5,4.5
			c0.2,0.1,0.5,0.1,0.7,0.1c0.3,0,0.5,0.1,0.8,0.1c0.5,0.1,1,0.1,1.5,0.2c0.5,0.1,1,0.1,1.5,0.2c0.1,0,0.2,0.1,0.2,0.1
			C134.9,243.2,135,243.5,135,244.1z"/>
	</g>
	<g>
		<path class="st39" d="M282,297.7c0-0.1-0.1-0.3,0-0.4c0.1-0.3,0.5-0.5,0.8-0.5c0.7-0.1,1.4-0.4,2.1-0.4c0.4-0.1,0.8-0.2,1.2-0.2
			c0.2-0.1,1.1-0.1,1.2-0.2c0.3-0.8,0.8-1.6,1.3-2.4c0.5-0.8,1-1.7,1.4-2.6c0.4-0.7,0.8-1.6,1.2-2.6c0.4-1,0.8-2,1.3-2.9
			c0.4-1,0.8-1.9,1.2-2.7c0.2-0.4,0.4-0.7,0.6-1.1c0.2-0.3,0.4-0.6,0.7-0.8c0.5-0.3,0.7-0.5,0.9-0.4c0.2,0.1,0.3,0.5,0.4,1.2
			c0.1,0.8-0.3,1.6-0.8,2.6l-0.4,0.7c-0.1,0.2-0.3,0.4-0.4,0.6c-0.3,0.4-0.5,0.8-0.7,1.2c-0.2,0.4-0.3,0.8-0.5,1.2
			c-0.2,0.4-0.4,0.8-0.5,1.2c-0.4,0.9-0.7,1.8-1.1,2.6c-0.7,1.6-1.2,2.5-1,2.9c0.1,0.2,0.3,0.2,0.8,0.2c0.5,0,1.2-0.2,2.1-0.5
			c0.6-0.2,1.1-0.3,1.7-0.5c0.5-0.2,1.1-0.4,1.6-0.7c0.2,0,0.4-0.1,0.5-0.2c0.4-0.9,0.6-2.2,0.9-3.1c0.8-2.2,1.4-4.3,2-6.3
			c0.1-0.6,0.6-2.4,0.8-4.3c0.1-0.4,0.2-0.9,0.2-1.3c0.1-0.4,0.1-0.8,0.2-1.1c0.2-0.6,0.4-1,0.8-1.1c0.5-0.1,0.8,0.3,1,1
			c0.1,0.7,0.1,1.6-0.1,2.6c-0.3,2-1.2,4.3-1.4,4.9c-0.1,0.3-0.2,1-0.4,1.7c-0.2,0.7-0.5,1.6-0.7,2.4c-0.5,1.7-0.9,3.1-0.3,3.2
			c0.8,0.2,1.6-0.7,2.2-1.1c0.3-0.3,0.7-0.6,1.1-0.8c0.4-0.3,1-0.6,1.1-1c0.1-0.3,0.2-0.5,0.3-0.8c0.2-0.6,0.4-1,0.5-1.6
			c0.2-1.1,0.5-2.1,0.6-3.1c0.1-0.7,0.2-1.3,0.3-2l0.1-1l0.1-1c0.1-1.3,0.3-2.6,0.4-3.8c0-0.3,0.1-0.8,0.1-1.3
			c0-0.6,0.1-1.2,0.2-1.8c0-0.3,0.1-0.6,0.2-0.8c0.1-0.3,0.2-0.5,0.3-0.7c0.2-0.4,0.6-0.5,1.1-0.4c0.5,0.1,0.3,1,0.4,1.4
			c0,0.6-0.5,2.3-0.5,2.8c-0.3,1.8-0.5,3.7-0.7,5.6c-0.2,1.6-0.4,3.1-0.7,4.7c-0.2,1.2-0.7,2.1-0.3,2.1c0.3,0,1-0.4,1.6-1.1
			c0.6-0.6,1.2-1.3,1.4-1.5c1.1-0.9,1.6-1.3,1.8-1.8c0.3-0.5,0.3-1.1,0.3-2.6c0-2.2-0.3-4.5-0.5-6.7c-0.2-2.2-0.4-4.4-0.1-6.4
			c0.1-1.5,0.2-2.1,1.5-1.2c0.1,0.2,0.1,0.9,0.1,1.1c0.3,1,0.4,2.1,0.3,3.1c-0.1,1.1-0.1,2.2-0.1,3.2c0.1,1.3,0.3,2.6,0.4,3.8
			c0,0.3,0,1.1,0,1.8c0,0.7,0.2,1.3,0.7,1.1c0.1,0,0.3-0.3,0.4-0.4c0.4-0.4,0.8-0.9,1.1-1.3c0.3-0.3,0.4-0.7,0.6-1
			c0.1-0.4,0.2-0.7,0.2-1.1c0.1-0.5,0.1-1,0.1-1.4c-0.3-2.5-0.5-5-0.8-7.5c0-0.2-0.1-0.8-0.2-1.7c-0.1-0.9-0.2-1.9-0.4-3
			c-0.1-1-0.2-2-0.2-2.8c0-0.8,0.2-1.3,0.6-1.4c0.7-0.1,0.8,0.7,1,1.1c0.6,1.1,0.8,2.6,0.8,4.1c0,0.8,0,1.6,0,2.3
			c0,0.8,0,1.5,0.1,2.1c0,0.2,0,0.4,0,0.6c0,1,0.1,2,0.2,2.9c0,0.5,0.1,0.9,0.1,1.5c0.1,0.1,0.1,0.3,0.1,0.5c0,0.1,0,0.5,0.1,0.6
			c0.1,0,0.2,0,0.2,0c0.2-0.1,0.4-0.5,0.5-0.8c0.3-0.2,0.5-0.6,0.7-0.9c0.4-0.6,0.6-1.3,1-2c0-0.2,0.2-0.4,0.2-0.5
			c-0.1-0.5-0.2-1.1-0.2-1.3c-1-5.1-1.2-10.4-2.1-15.2c-0.1-0.5-0.3-1.6-0.4-2.4c0-0.8,0.2-1.3,1.2-0.6c0.9,0.6,0.8,3,1,3.8
			c0.3,1.8,0.5,4,0.6,6.2c0.1,1.1,0.2,2.2,0.3,3.2c0.2,1,0.4,2,0.7,2.9c0.1,0.3,0.2,0.5,0.2,0.6c0.1-0.1,0.1-0.3,0.3-0.6
			c0.7-1.1,1-2.5,1.7-3.8c0.9-2.1,0.8-0.7,0.3-2.9c-0.2-1.3-0.6-2.8-0.9-4c-0.3-1.2-0.6-2.5-0.8-3.7c-0.2-1.2-0.5-2.5-0.7-3.7
			c-0.3-1.4-1.6-4.3-1.3-5.5c0.5-1.7,1.1-0.8,1.8,0.4c0.3,0.4,0.5,1,0.7,1.6c0.2,0.6,0.3,1.2,0.4,1.8c0.1,0.6,0.2,1.3,0.3,1.9
			c0.1,0.6,0.1,1.2,0.2,1.7c0.2,1.1,0.5,2.2,0.7,3.3c0.2,1.1,0.5,2.2,0.7,3.3c0-0.2,0.2,0.6,0.3,1.2c0-0.2,0.1-0.3,0.1-0.3
			c0.4-0.6,0.6-1.4,0.8-2.2c0.2-0.8,0.3-1.7,0.5-2.3c0.3-0.8,0.4-1.2,0.5-1.5c-0.2-1-0.6-2.1-1-3.2c-0.5-1.1-1-2.1-1.2-3.2
			c-0.1-0.4-0.4-1.3-0.7-2.3c-0.2-0.5-0.3-1.1-0.5-1.7c-0.2-0.6-0.4-1.2-0.6-1.8c-0.2-0.6-0.4-1.2-0.6-1.8c-0.2-0.6-0.4-1.1-0.5-1.6
			c-0.3-1-0.3-1.7-0.1-2.1c0.5-0.9,0.9-0.6,1.4-0.1c0.4,0.6,0.7,1.5,0.9,1.9c1.5,3.9,2,8.3,3.6,12.2c0,0.1,0.1,0.2,0.1,0.3
			c0-0.1,0-0.3,0-0.5c0.2-0.7,0.3-1.4,0.4-2.1c0.2-1,0.3-2.2,0.5-3.2c0,0,0.1-1.2,0.2-1.6c-0.3-1.2-0.9-2.3-1.5-3.5
			c-0.6-1.1-1.3-2.2-1.7-3.3c-0.2-0.4-1.1-2.3-1.7-4c-0.7-1.7-1.1-3.3-0.1-3.2c0.6,0,0.8,0.8,1.2,1.3c2.1,2.4,2.2,6.7,4.2,9.5
			c0.7,1,0.1,0.3,0.1-1.1c0-1.6,0.5-3.3,0.3-4.8c-0.1-0.2-0.4-0.7-0.8-1.4c-0.6-0.8-1.1-1.6-1.6-2.5c-0.2-0.3-0.5-0.9-1-1.7
			c-0.5-0.8-1-1.8-1.5-2.7c-1-1.9-1.8-3.6-1.1-3.8c0.9-0.3,1.9,0.9,2.8,2.6c0.8,1.7,1.6,3.8,2.2,5.2c0.1,0.2,0.3,0.4,0.5,0.7
			l0.5,0.6c0.1,0.1,0.2,0,0.3,0c-0.1,0-0.2-1-0.2-1.1c-0.1-1-0.2-1.9-0.3-2.9c0-0.3,0-0.8,0-1.2c0-0.1,0.1-0.3,0-0.5
			c-0.1-0.4-0.3-0.8-0.5-1.2c-0.3-0.5-0.6-0.9-0.9-1.4c-0.6-0.8-1.2-1.7-1.8-2.6c-0.7-1.2-2.1-4.1,0.1-2.8c0.5,0.3,1,1.3,1.3,1.8
			c0.7,0.9,1.1,1.9,1.7,2.7l0,0.1c0-0.6,0-1.2,0-1.8c-0.1-0.6-0.2-1.2-0.3-1.9c-0.2-1.3-0.5-2.5-0.7-3.7c-0.3-2.3-0.1-3.7,1.7-1.5
			c1.3,1.6,1.8,5.4,1.8,8.4c0.6-1.3,1.2-2.5,2.3-2.1c0.6,0.2,1.2,1.4,1.3,2c0.2,1.2-0.4,2.3-1.1,3.2c-0.7,1-1.6,1.9-1.9,2.7
			c-0.3,0.9-0.3,2.3-0.3,3.7c0.8-1.2,2-3.1,3.1-4.1c1-0.9,2-1,2.2,1.6c0.2,1.6-0.8,2.9-2,4c-1.2,1.1-2.5,2.1-3.1,3.1
			c-0.3,0.6-0.5,1.4-0.6,2.3c0,0.5-0.1,0.9-0.1,1.4c0,0.5-0.1,1-0.1,1.5c0.5-0.5,0.9-0.9,1.3-1.5c0.4-0.5,0.8-1.1,1.2-1.7
			c0.3-0.4,0.8-1.6,1.4-2.7c0.5-1.1,1.1-2.1,1.6-2.2c0.9-0.2,1.6,0.8,1.9,1.9c0.3,1.3-0.3,2.7-1.1,3.9c-0.8,1.3-1.9,2.4-2.5,3.3
			c-0.9,1.2-1.8,1.9-2.6,2.7c-0.8,0.8-1.4,1.6-1.8,3c-0.2,0.8-0.4,1.7-0.5,2.6c0.9-0.8,1.8-1.5,2.8-2.3c0.3-0.3,1.5-1.6,2.7-2.9
			c1.2-1.3,2.2-2.6,2.2-2.6c0.9,0,1.5,0.7,1.6,2c0.2,1.5-0.9,3.2-2.3,4.5c-1.4,1.4-2.9,2.4-3.7,3.1c-1.3,1.1-3.5,2.1-4.5,3.6
			c-0.4,0.6-0.7,1.4-0.9,2.3c-0.2,0.9-0.5,1.9-0.7,2.9c1.6-0.8,3.4-1.7,4.9-2.9c0.4-0.3,1.6-1.6,2.7-2.9c1.1-1.3,2.2-2.5,2.5-2.4
			c0.8,0.2,1.4,1.3,1.3,2.4c0,1.6-1.5,3.4-3,4.7c-1.6,1.4-3.4,2.4-4.3,2.9c-1.2,0.7-2.4,1.1-3.5,1.6c-1,0.5-1.9,1.2-2.7,2.5
			c-0.3,0.6-0.5,1.2-0.8,1.9c1.7-1,4.5-3,6.8-4.3c2.3-1.3,4.1-1.7,3.7,0.8c-0.2,1.4-1.3,2.5-2.7,3.3c-1.4,0.8-2.8,1.3-3.7,1.8
			c-1.7,0.9-4.8,1.7-6.2,2.9c-0.4,0.4-0.8,0.9-1.1,1.5c-0.4,0.6-0.7,1.3-1.1,2c1-0.2,1.9-0.5,2.9-0.9c0.9-0.4,1.8-0.8,2.7-1.2
			c1.4-0.6,3.5-2.5,4.9-2.8c1.2-0.2,2.1,0.2,1.5,2.2c-0.3,1.2-1.5,2.1-2.8,2.8c-0.6,0.3-1.3,0.6-1.9,0.9c-0.6,0.2-1.2,0.5-1.7,0.7
			c-1.2,0.5-2.4,1.1-3.7,1.4c-1,0.3-3,0.1-3.7,0.7c-1.3,0.8-2.5,2.6-3.7,4.1c1.1-0.1,2.3-0.2,3.4-0.5c1.1-0.2,2.2-0.5,3.3-0.9
			c0.6-0.1,1.6-0.8,2.7-1.3c1-0.5,2.1-1,2.6-0.9c0.5,0.1,0.8,0.5,0.8,1c0.1,0.5-0.1,1.1-0.4,1.7c-0.3,0.6-0.9,1.2-1.6,1.6
			c-0.7,0.4-1.5,0.8-2.4,1c-1.6,0.5-3.4,0.7-4.4,1c-1.2,0.3-2.6,0.3-4,0.4c-0.7,0-1.4,0.1-2,0.2c-0.3,0.1-0.6,0.2-0.9,0.3
			c-0.3,0.1-0.6,0.2-0.9,0.4c-0.6,0.3-1.2,0.8-1.8,1.3c-0.6,0.5-1.2,1-1.8,1.5c1.2,0.4,2.4,0.6,3.7,0.7c1.2,0.1,2.5,0,3.9-0.2
			c0.7-0.1,2.1-0.7,3.6-1.3c1.5-0.6,2.8-1.2,3.3-1c1,0.3,1,1.5,0,2.9c-1.1,1.3-3.4,2.3-5.9,2.6c-2.3,0.4-4.7,0.2-5.9,0.1
			c-0.7,0-1.9-0.5-3-0.9c-1.1-0.4-2.2-0.8-2.9-0.7c-0.4,0.1-1.2,0.4-2.1,0.9c-0.9,0.5-1.9,1.1-2.7,1.6c0.8,0.6,1.7,1.2,2.7,1.7
			c1,0.5,2,0.8,3.2,1.1c0.8,0.2,1.7,0.4,2.6,0.4c0.9,0,1.8,0,2.8-0.1c0,0,0.2,0,0.5-0.1c0.3,0,0.7-0.1,1.1-0.2
			c0.8-0.2,1.5-0.4,1.5-0.4c0.9,0.5,0.8,1.5-0.5,2.7c-0.9,0.7-2.1,1.2-3.4,1.4c-1.3,0.2-2.7,0.1-4.1-0.1c-1.3-0.2-2.6-0.6-3.7-1
			c-1.1-0.4-1.9-0.8-2.5-1.1c-1.2-0.7-2.7-2.4-3.8-2.7c-0.5-0.1-1.5,0.1-2.5,0.5c-0.5,0.2-1.1,0.4-1.6,0.6c-0.6,0.2-1.1,0.3-1.6,0.5
			c1.2,1.8,2.7,3.5,4.6,4.8c1,0.6,2,1.3,3.2,1.7c1.2,0.4,2.4,0.8,3.8,1c1,0.2,2.4,0,3.2,0.3c0.8,0.2,1,0.7-0.4,1.9
			c-0.3,0.3-0.6,0.5-1,0.6c-0.4,0.1-0.7,0.2-1.1,0.3c-0.8,0.1-1.6,0.1-2.4,0c-0.8-0.1-1.6-0.3-2.3-0.6c-0.7-0.2-1.3-0.5-1.8-0.7
			c-2.4-1-4.5-2.6-6.1-4.1c-0.9-0.8-2.2-3.8-3.4-4.2c-0.2,0-0.5,0.1-0.7,0.1c-0.3,0.1-0.5,0.1-0.8,0.1c-0.5,0-1.1,0.1-1.6,0.1
			c-0.5,0-1.1,0.1-1.6,0.1c-0.1,0-0.2,0-0.2,0C282.3,298.6,282.1,298.3,282,297.7z"/>
	</g>
	<g>
		<path class="st39" d="M267.9,86.9c0.8,1.4,2.5,4.1,3.9,1.8c1.9-4-1.1-8.3-3.6-11.4c0-0.1-0.7-0.8-0.8-0.4
			C266.6,80.4,266.1,83.6,267.9,86.9z"/>
		<path class="st39" d="M259.9,98.5c0.2-0.5,0.2-1,0.2-1.6c-0.1-1-0.7-1.8-1.7-2.3c-1.1-0.5-2.3-0.8-3.5-0.8c-1.3-0.1-2.6,0-4,0.1
			c-1,0.1-2,0.3-3,0.5c-0.7,0.2,0,1.1,0.3,1.3c0.6,0.5,1.3,0.9,2,1.4c1.3,0.8,2.5,1.5,3.8,2.1c1.1,0.5,2.5,1,3.8,0.8
			c0.5-0.1,1-0.3,1.4-0.7C259.6,99.2,259.8,98.9,259.9,98.5z"/>
		<path class="st39" d="M261.7,121.6c2.2-1.9,8.7-9.3,3.4-11.3c-4.4-1.6-5.6,8.6-5.8,11.2c-0.1,0.3,0.6,1.5,1.1,1.1
			C260.9,122.2,261.3,122,261.7,121.6z"/>
		<path class="st39" d="M287.1,116.8c-0.2-0.7-0.4-1.2-0.6-1.9c-0.3-0.8-0.7-1.6-1.1-2.4c-0.5-0.9-0.9-1.7-1.4-2.5
			c-0.5-0.7-1.1-1.5-1.8-2c-0.5-0.5-1.2-0.9-1.9-1c-0.5-0.1-1,0-1.4,0.2c-0.2,0.1-0.4,0.3-0.6,0.3c-0.1,0.2-0.3,0.5-0.5,0.6
			c-0.1,0.2-0.2,0.4-0.3,0.5c-0.1,0.3-0.1,0.5-0.1,0.7c0,0.4,0,0.8,0.1,1.2c0.3,0.9,0.9,1.7,1.6,2.3c0.8,0.7,1.7,1.4,2.7,2
			c1,0.6,1.9,1,3,1.6c0.7,0.4,1.4,0.6,2.1,0.8C287.2,117.5,287.1,117,287.1,116.8z"/>
		<path class="st39" d="M285.8,90.1c-6.2,2.9-2.8,8.5,3.6,4.7C296.7,90.4,292,87.2,285.8,90.1z"/>
		<path class="st40" d="M277.1,84c-0.1,0-0.2,0.1-0.2,0.2l0,0c-2.4,1.7-5,3.8-5.5,6.9c-0.3,2,0.3,5,2.4,5.9c2.3,1.1,4.7-1.4,5.8-3.2
			c1.9-3.1,1.5-7,1.2-10.4c0-0.3-0.6-1.2-1.1-0.9C278.8,82.9,277.9,83.5,277.1,84L277.1,84z"/>
		<path class="st40" d="M262.2,96.1c0.2,0.3,0.5,0.7,0.8,1c0.8,0.9,1.7,1.5,2.7,1.8c0.5,0.1,1.1,0,1.5-0.1c0.3-0.1,0.5-0.2,0.8-0.3
			c0.2-0.1,0.3-0.1,0.4-0.3c0.2-0.2,0.5-0.4,0.7-0.6c0.2-0.2,0.5-0.4,0.7-0.7c0.5-0.7,0.9-1.7,0.7-2.6c-0.1-0.9-0.5-1.7-1.1-2.4
			c-0.6-0.8-1.5-1.5-2.3-2c-0.9-0.7-2-1.2-2.9-1.7c-0.9-0.5-2-0.9-3-1.2c-0.9-0.3-1.7-0.5-2.5-0.7c-0.1-0.1-0.3,0-0.2,0.2
			C259.1,89.8,260.2,93.3,262.2,96.1z"/>
		<path class="st40" d="M265.1,108.1c3.3-1.8,4.4-6.1,0.3-8c-5-2.3-9,3.8-11.3,7.4c-0.2,0.3,0.6,1.3,1,1.4c2.9,0.5,5.6,1,8.3,0.2
			C263.7,108.8,264.7,108.4,265.1,108.1z"/>
		<path class="st40" d="M273.9,104.9c-0.2-0.1-0.3-0.3-0.5-0.4c-0.3-0.2-0.6-0.5-1-0.6c-0.5-0.2-1-0.2-1.5-0.1
			c-0.6,0.1-1.1,0.4-1.5,0.9c-1,1-1.5,2.4-1.7,3.7c-0.7,4.1,2.1,7.8,4.3,11c0,0.1,0.6,0.7,0.7,0.5c0.7-1.2,1.3-2.4,1.9-3.7
			c0.5-1.3,1-2.7,1.3-4.1c0.2-1.3,0.3-2.8-0.1-4.1c-0.2-0.7-0.5-1.3-0.9-1.9c-0.2-0.3-0.6-0.6-0.8-1
			C274.1,104.9,274.1,104.9,273.9,104.9z"/>
		<path class="st40" d="M274.8,99.3c-0.1,0.1-0.1,0.3-0.2,0.5c-0.1,0.3-0.1,0.5-0.1,0.7c-0.1,0.7-0.1,1.3-0.1,1.9
			c0.1,0.8,0.4,1.5,0.8,2.1c0.5,0.5,1.2,0.9,1.8,1.2c0.9,0.3,1.6,0.4,2.5,0.4c1,0,1.9,0,2.9-0.2c1-0.2,2-0.4,2.8-0.6
			c0.9-0.2,1.7-0.5,2.5-0.8c0.5-0.2,1.2-0.5,1.7-0.7c0.5-0.2-0.1-1-0.3-1.2c-0.7-0.7-1.3-1.3-2.1-1.8c-0.9-0.7-1.8-1.4-2.8-1.9
			c-1-0.6-2-1.1-3-1.5c-1-0.3-1.9-0.6-3-0.6c-0.8,0-1.8,0.3-2.4,0.9c-0.4,0.4-0.7,0.7-0.9,1.1C275,98.9,274.8,99.1,274.8,99.3z"/>
		<path class="st40" d="M273.3,99.4c-0.5-1.4-2.2-2.3-3.6-1.5c-1,0.6-1.2,2.1-0.8,3.1c0.3,0.6,0.7,1.1,1.2,1.5
			c0.3,0.2,0.5,0.3,0.9,0.3c0.3,0.1,0.7-0.1,1-0.1c0.6-0.1,1-0.8,1.3-1.3C273.6,100.8,273.6,100,273.3,99.4z"/>
	</g>
	<g>
		<path d="M237.5,330.7c-0.4,0.2-0.6,0.6-0.8,1c-2.1,3.1-3.9,6.4-5.8,9.7c-0.3,0.5-0.2,0.9,0.1,1.4c1.6,3,3,6,3.9,9.3
			c0.7,2.5,1,4.9,0.4,7.4c-0.2,0.8-0.5,1.6-1.3,2c-0.4,0.2-0.6,0.6-0.9,0.9c-1.4,1.5-3.1,2.4-5.2,2.4c-2.8,0-5.2-2.2-5.6-5
			c-0.3-2,0.1-3.9,0.6-5.8c0.7-2.6,1.7-5.1,3.1-7.5c0.5-0.8,0.4-1.5,0-2.3c-1.5-2.7-2.9-5.4-4.3-8.1c-0.7-1.4-1.3-2.8-2-4.3
			c-0.3,0.3-0.3,0.6-0.4,1c-2.1,6.8-4.2,13.5-6.1,20.4c-0.2,0.7-0.4,1.3-0.7,2c-0.9,2.5-3.4,2.6-5,1c-1.4-1.4-2.5-2.9-3.3-4.7
			c-1.2-2.5-1.8-5.2-2.3-7.9c-0.2-0.9-0.3-1.8-0.6-2.7c-0.1,0.4-0.2,0.8-0.3,1.2c-1.5,5.7-2.8,11.4-4.4,17.1
			c-0.3,1.1-0.7,2.2-1.2,3.2c-1.4,2.7-4.6,2.7-6.3,0.8c-1.2-1.3-2-2.9-2.7-4.5c-1.1-2.9-1.7-6-1.8-9.1c-0.4-7.3,0.4-14.4,2-21.5
			c0.3-1.4,0.6-2.8,0.8-4.2c0.2-1.7-0.1-2.2-1.8-2.6c-1.9-0.5-3.8-0.5-5.7-0.4c-0.7,0-0.8,0-0.7,0.8c0.2,2.1,0.2,4.2,0.2,6.2
			c0,4.2-0.5,8.4-1.2,12.5c-0.9,5.7-2.1,11.3-4,16.8c-0.5,1.4-1,2.7-1.7,4c-0.5,0.9-1.1,1.8-1.8,2.6c-1.7,1.7-3.9,2-5.9,0.8
			c-1.2-0.7-2.1-1.6-2.8-2.8c-1.5-2.4-2.3-5-2.6-7.7c-0.4-3.4-0.3-6.8-0.3-10.2c0-1.5,0-3.1-0.2-4.6c0-0.5-0.1-1-0.3-1.5
			c-0.6,0.2-0.9,0.7-1.3,1c-2.6,2.7-4.2,5.9-5.4,9.4c-1.4,4.2-1.9,8.5-1.7,12.9c0,0.5,0,1,0,1.5c-0.2,1.9-1.6,2.9-3.5,2.6
			c-1.1-0.2-2-0.6-2.8-1.4c-2.5-2.3-4.2-5-5.4-8.2c-1.4-3.6-2.4-7.3-2.9-11.1c0-0.4,0-0.8-0.3-1.1c-0.4,0.2-0.4,0.7-0.6,1
			c-1.7,3.4-3,6.9-4.5,10.3c-0.9,2.1-1.9,4.2-3.2,6.2c-0.5,0.8-1,1.6-1.7,2.3c-2,2.3-4.5,3-7.4,2.2c-2.5-0.7-4.6-2.2-6.5-3.9
			c-3.9-3.4-6.4-7.7-8-12.6c-2.6-7.7-3.4-15.7-2.6-23.8c0.3-3.4,1.2-6.6,2.8-9.7c1.4-2.8,3.4-5.1,5.9-6.9c3.4-2.4,7-3,10.8-1.4
			c5.3,2.2,9.2,5.7,10.9,11.4c0.5,1.8,0.6,3.6,0.6,5.5c0,0.4-0.1,0.8-0.5,1c-0.6,0.3-1.4,0-1.5-0.9c-0.5-4.1-2.1-7.7-5-10.6
			c-1.4-1.4-3.1-2.4-4.9-3.1c-2-0.8-3.7-0.5-5.4,0.7c-1.3,0.9-2.4,2.1-3.3,3.3c-2.4,3.1-3.8,6.6-4.3,10.3c-1.3,9.8,0,19.3,4.4,28.2
			c1.4,2.8,3.1,5.4,5.2,7.7c0.8,0.9,1.8,1.6,2.9,2.2c1.1,0.5,2.1,0.4,3.1-0.3c1-0.7,1.8-1.7,2.4-2.7c1.4-2.2,2.6-4.5,3.6-6.9
			c1.9-4.4,3.9-8.6,6.1-12.9c0.3-0.7,0.5-1.3,0.5-2c0.1-5.5,0.9-10.8,2.8-15.9c1.1-2.8,2.5-5.3,4.7-7.4c1.2-1.2,2.6-2.1,4.4-2.4
			c1-0.2,2-0.1,2.9,0.3c1.3,0.6,2.1,1.6,2.3,3c0.1,1.2-0.1,2.3-0.5,3.5c-1.3,3.7-3.4,6.8-6.3,9.4c-1.2,1.1-2.4,2.3-3.6,3.4
			c-0.3,0.3-0.4,0.6-0.4,0.9c-1,9.1,0.3,17.7,4.8,25.7c0.1,0.2,0.2,0.3,0.3,0.5c0,0.1,0.1,0.1,0.3,0.2c0.3-1.6,0.5-3.2,0.8-4.7
			c1-5.2,2.7-10.1,5.6-14.5c0.7-1.2,1.6-2.3,2.5-3.2c0.5-0.5,1.1-1,1.7-1.4c1.7-0.9,3.6-0.7,5,0.6c1.3,1.3,1.8,2.9,2.1,4.6
			c0.5,3,0.4,6,0.5,9c0.1,3.2,0.5,6.3,1.1,9.5c0.2,1.1,0.6,2,1.2,2.9c0.4,0.6,0.6,0.6,1.1,0.2c0.7-0.5,1.2-1.3,1.6-2
			c1.4-2.3,2.2-4.8,3-7.4c2.1-7,3.4-14.1,4-21.4c0.3-3.2,0.2-6.4,0-9.6c-0.1-1-0.1-1-1-1c-1.9-0.1-3.8-0.4-5.6-1.2
			c-1.8-0.8-3.2-1.9-3.8-3.9c-0.6-2,0-4.2,1.7-5.6c1.6-1.3,3.8-1.5,5.6-0.4c1.1,0.6,2,1.6,2.6,2.6c1.1,1.7,1.6,3.7,2,5.6
			c0.2,1,0.2,1,1.2,0.9c2.5-0.2,5-0.2,7.5,0.3c3.5,0.7,5.5,3.3,5.3,6.8c-0.1,2.1-0.6,4.2-0.9,6.3c-0.7,4-1.2,8.1-1.3,12.2
			c-0.1,3.7,0.4,7.4,1.1,11c0.3,1.6,0.5,3.2,1.1,4.7c0,0.1,0.1,0.3,0.3,0.4c0.4-0.3,0.5-0.8,0.7-1.3c1.1-2.9,2-5.9,2.8-8.8
			c1.4-5.2,2.8-10.4,4.2-15.6c0.3-1.1,0.2-2.3,0.1-3.4c-0.2-3.5-0.2-6.9,0.4-10.3c0.1-0.5,0.2-0.9,0.3-1.4c0.4-1.2,1.3-1.9,2.4-1.8
			c1.1,0.1,1.9,0.8,2.1,2c0.3,1.3,0.3,2.6,0.3,4c0.2,7.2,0.8,14.4,2,21.5c0.4,2.4,0.9,4.8,1.6,7.1c0.1,0.4,0.3,0.9,0.6,1.3
			c0.4-0.3,0.4-0.8,0.6-1.2c2.4-7.5,4.9-15.1,7.3-22.6c0.3-0.8,0.3-1.6,0-2.4c-0.9-3-1.5-6-1.4-9.2c0.1-2.9,0.9-5.6,2.6-7.9
			c0.9-1.3,2.1-2.3,3.7-2.8c1.6-0.5,3-0.2,4.2,0.8c2.3,1.9,3.5,4.4,2.8,7.5c-0.4,1.9-1.2,3.5-2.1,5.2c-1,2-2.3,3.8-3.7,5.5
			c-0.3,0.4-0.5,0.7-0.3,1.2c0.6,2.4,4,9.6,5.5,11.7c0.4-0.2,0.5-0.6,0.7-0.9c1.3-2.2,2.5-4.3,3.9-6.4c0.9-1.3,1.8-2.6,2.9-3.7
			c0.4-0.4,0.5-0.8,0.5-1.4c-0.3-6.6-0.1-13.1,0.1-19.7c0.1-2.7,0.2-5.5,0.2-8.2c0-1.2,0.3-1-1-1.4c-4.5-1.3-9-2.7-13.4-4.5
			c-3.1-1.3-6-2.9-8.8-4.7c-0.4-0.2-0.7-0.5-1-0.8c-0.2-0.2-0.3-0.5-0.2-0.8c0.2-0.3,0.5-0.4,0.8-0.4c0.3,0,0.6,0.1,0.9,0.3
			c6.9,3.6,14.3,5.8,21.7,7.8c0.2,0.1,0.4,0.1,0.6,0.2c0.3,0.1,0.5,0,0.6-0.4c0-0.5,0.1-1,0.1-1.5c0.2-5.1,0.8-10.2,1.7-15.3
			c0.1-0.7,0.3-1.5,0.5-2.2c0.1-0.4,0.2-0.8,0.4-1.1c0.3-0.7,0.8-1.1,1.6-1c0.7,0,1.2,0.5,1.5,1.2c0.1,0.4,0.2,0.7,0.3,1.1
			c0.5,2.4,0.6,4.7,0.5,7.1c-0.2,4-0.4,8.1-0.5,12.1c-0.1,1.5,0,1.5,1.5,1.7c3,0.5,6,0.6,9,0.4c4.9-0.3,9.6-1.4,14-3.5
			c3.4-1.7,6.2-4.1,8.1-7.5c3.6-6.3,0.8-13.4-3.1-16.6c-2.7-2.2-5.7-2.5-8.9-1.5c-4.3,1.4-7,4.8-7.3,9.3c-0.2,3,0.8,5.5,3.4,7.1
			c2.3,1.4,5.3,0.5,6.5-1.9c0.3-0.6,0.5-1.2,0.1-1.9c-0.1-0.2-0.2-0.4-0.2-0.6c-0.1-0.7,0.2-1.1,0.9-1.1c0.6-0.1,1.2,0.2,1.6,0.6
			c1.2,1.1,1.5,2.5,1,4c-0.9,2.6-2.8,4-5.4,4.6c-3.6,0.8-6.5-0.6-8.8-3.3c-4.6-5.2-3.7-13.2,2-17.3c5.5-4.1,13.2-3.8,18.1,2
			c4,4.7,5.3,10.1,3.4,16c-1.1,3.6-3.6,6.3-6.6,8.5c-3.4,2.5-7.3,3.9-11.4,4.9c-4.2,1-8.4,1.4-12.7,1.2c-1.5-0.1-3-0.3-4.5-0.6
			c-0.8-0.2-0.9-0.1-0.9,0.7c0,1.1-0.1,2.2-0.1,3.3c-0.1,6.4-0.3,12.9-0.3,19.3c0.1,6,0.6,12,1.6,17.9c0.5,2.9,1,5.9,1.7,8.8
			c0.2,0.9,0.5,1.8,0.9,2.7c0.4,0.7,0.6,0.7,1.1,0.1c0.7-1,1.1-2.1,1.5-3.2c1.2-3.2,1.9-6.6,2.6-9.9c1.4-6.6,2.5-13.3,3.9-19.8
			c0.2-1.1,0.2-2.3,0.3-3.4c0-1.1,0.5-2.1,1-3.1c0.2-0.3,0.4-0.6,0.7-0.8c0.9-0.7,1.9-0.5,2.3,0.6c0.4,1.1,0.6,2.3,0.8,3.4
			c0.4,2.8,0.7,5.5,1,8.3c0.4,3.5,0.7,7,1.3,10.5c0.4,0,0.3-0.4,0.4-0.6c1.1-4.3,2.8-8.4,5.3-12.1c0.8-1.1,1.6-2.1,2.8-2.9
			c2.1-1.3,4.3-0.9,5.8,1c0.5,0.6,0.8,1.2,1.1,1.9c0.6,1.2,1,2.5,1.4,3.9c0.8,2.7,1.2,5.5,1.7,8.3c0,0.3,0,0.6,0.3,0.9
			c0.1-0.5,0.3-0.9,0.4-1.3c1.2-4.7,2.7-9.3,4.8-13.6c0.8-1.6,1.7-3.2,2.8-4.6c0.6-0.8,1.3-1.6,2.1-2.2c2.7-2.2,6.1-1.3,7.4,2
			c0.4,1.1,0.6,2.3,0.7,3.6c0.1,3.9-0.5,7.7-1.1,11.5c-0.9,5.6-1.8,11.2-2.2,16.9c-0.2,3.1-0.4,6.3-0.1,9.4c0,0.3,0,0.7,0.3,1.1
			c0.4-0.4,0.5-1,0.7-1.4c1-3,1.8-6,2.6-9c1.5-5.8,2.9-11.6,4.3-17.5c0.1-0.6,0.2-1.1,0.1-1.7c-0.5-4.9,0.1-9.7,2.2-14.2
			c0.2-0.5,0.5-1,0.8-1.5c2.3-3.8,6-5.2,10.2-3.8c3,0.9,5.3,2.8,7.3,5.1c0.2,0.3,0.4,0.7,0.9,0.8c0.2-0.8,0.4-1.5,0.7-2.2
			c0.2-0.5,0.4-1,0.7-1.5c0.6-1.1,1.4-1.4,2.4-1.2c1.1,0.2,1.9,1.1,2,2.2c0.1,0.9,0,1.8-0.1,2.7c-0.5,3.8-1,7.6-1.5,11.4
			c-0.9,8.3-0.6,15.4,1.4,23.3c0.5-0.2,0.5-0.7,0.6-1c1.2-3,2.1-6,2.9-9.1c1.1-4.1,2.2-8.2,3.3-12.3c0.2-0.7,0.2-1.3-0.1-1.9
			c-2.8-7.4-2.3-14.8,0.4-22.1c0.6-1.6,1.5-3,2.5-4.4c1.2-1.5,2.7-2.6,4.6-3.1c2-0.5,3.7,0.1,5,1.5c1.9,2,2.3,4.5,1.6,7.1
			c-0.4,1.6-1.1,3.2-1.9,4.7c-2.1,3.9-4.3,7.6-7.6,10.6c-0.4,0.4-0.5,0.8-0.4,1.3c0.4,2.1,1.2,4.1,2,6c2.5,5.9,5,11.7,7.5,17.6
			c1.4,3.4,2.5,7,3.1,10.7c0.2,1.4,0.3,2.7,0.1,4.1c-0.4,3.5-3.5,6.8-6.9,7.4c-2,0.4-3.7-0.3-5-2c-1.3-1.7-1.9-3.6-2.2-5.6
			c-0.3-2.6,0-5.1,1-7.5c0-0.1,0.1-0.2,0.1-0.3c0.3-0.6,0.9-0.9,1.5-0.7c0.6,0.1,0.8,0.5,0.7,1.3c-0.2,1.1-0.4,2.2-0.5,3.4
			c-0.3,2.6,0.4,4.9,1.7,7.1c0.3,0.4,0.6,0.8,1,1.1c0.4,0.4,0.8,0.3,1.2-0.1c0.8-0.9,1.2-2,1.3-3.2c0.3-2.7-0.2-5.4-0.8-8
			c-1-4.5-2.8-8.7-4.4-13c-1.1-2.9-2.3-5.7-3.5-8.6c-0.1-0.3-0.2-0.7-0.5-1c-0.2,0.3-0.3,0.6-0.3,0.9c-1.5,6-3,12-4.5,18
			c-0.3,1.2-0.7,2.3-1.2,3.4c-1.1,2.2-3.4,2.7-5.3,1.1c-0.8-0.6-1.4-1.5-2-2.3c-1.6-2.6-2.2-5.4-2.6-8.4c-0.7-5.3-0.6-10.7-0.1-16
			c0-0.3,0.1-0.5,0-0.8c-0.4,0.2-0.5,0.6-0.6,0.9c-1.1,2.1-2.4,4.2-3.9,6c-1,1.3-2.2,2.4-3.6,3.4c-3.4,2.3-7.2,1.4-9.4-1.8
			c-0.2-0.3-0.3-0.7-0.8-0.9c-0.5,1.3-0.7,2.6-1,3.9c-1.5,6.3-2.8,12.6-4.5,18.9c-0.3,1.2-0.7,2.3-1.1,3.5c-0.3,0.7-0.7,1.3-1.2,1.9
			c-1.6,1.7-3.8,1.5-5.1-0.5c-1-1.5-1.5-3.1-1.7-4.8c-0.5-3.1-0.4-6.2-0.2-9.3c0.5-6.3,1.6-12.5,2.6-18.8c0.5-3.1,0.9-6.3,0.9-9.5
			c0-0.9,0-1.7-0.3-2.6c-0.3-0.9-0.5-1-1.2-0.4c-0.4,0.3-0.8,0.7-1.2,1.2c-1.8,2.1-3.1,4.6-4.1,7.1c-3,7.2-4.6,14.6-4.6,22.4
			c0,0.6,0.1,1.2,0.1,1.8c0,1.1-0.5,1.7-1.6,2c-1,0.3-1.9-0.1-2.4-1c-0.4-0.7-0.6-1.5-0.8-2.3c-1-4-1.6-8-2.1-12
			c-0.5-3.5-0.9-7-1.9-10.4c-0.2-0.8-0.5-1.7-0.9-2.4c-0.4-0.8-0.5-0.8-1.2-0.3c-0.6,0.5-1.1,1.1-1.6,1.7c-2.4,3.2-3.9,6.8-5,10.7
			c-0.9,3.2-1.1,6.6-1,9.9c0,0.7,0.1,1.5,0.1,2.2c0,1.1-0.4,1.6-1.3,2c-0.9,0.3-1.8,0.1-2.4-0.7c-0.4-0.6-0.7-1.2-0.9-1.9
			c-1.4-3.7-2.4-7.5-3-11.5c-0.2-1.3-0.4-2.6-0.5-3.8c0-0.3,0-0.5-0.3-0.9c-0.4,1.9-0.7,3.7-1,5.5c-0.9,4.5-1.5,9-2.8,13.3
			c-0.4,1.4-0.8,2.7-1.5,4c-0.5,1.1-1.2,2.1-2.2,2.8c-2.1,1.5-4.5,1.4-6.1-0.9c-1.5-2.1-2.3-4.5-3.1-6.9c-1.3-4-1.9-8.1-2.4-12.2
			c-0.1-1.2-0.2-2.3-0.3-3.5C237.7,331.3,237.7,331,237.5,330.7z M310.8,326.2c0,1.1,0.1,2.5,0.3,4c0.1,1.1,0.3,2.3,0.8,3.3
			c0.5,1.1,0.8,1.2,1.9,0.8c0.8-0.3,1.5-0.7,2.2-1.2c1.7-1.3,3.1-2.9,4.3-4.7c2-3,3.6-6.3,5.2-9.6c0.2-0.4,0.2-0.8-0.1-1.2
			c-1.7-2.4-3.8-4.3-6.7-5.2c-1.8-0.6-3.4-0.2-4.7,1.3c-0.9,1-1.4,2.1-1.9,3.4C311.3,319.9,310.8,322.8,310.8,326.2z M343.3,316.8
			c0.2-0.2,0.3-0.2,0.4-0.3c2.3-2.8,4.4-5.7,6.1-8.9c0.5-1,1-2,1.4-3.1c0.4-1.1,0.6-2.3,0.4-3.5c-0.2-1-0.5-2-1.6-2.3
			c-1-0.4-1.8,0.3-2.5,0.9c-0.3,0.2-0.5,0.5-0.7,0.8c-0.9,1.1-1.5,2.3-1.9,3.6c-0.9,2.9-1.4,5.9-1.6,8.9
			C343.2,314.1,343.1,315.4,343.3,316.8z M223.2,325.3c1.9-2.7,3.4-5.2,4.2-8c0.3-1.1,0.4-2.2,0.2-3.4c-0.2-1.1-0.5-2.2-1.5-3
			c-0.4-0.4-0.8-0.4-1.3,0c-0.5,0.4-0.9,0.9-1.2,1.4c-0.8,1.4-1.2,2.9-1.3,4.5C222.1,319.6,222.5,322.3,223.2,325.3z M227.6,347.9
			c-0.9,2.1-1.6,3.9-2,5.9c-0.3,1.5-0.5,3-0.2,4.5c0.3,1.4,1.1,2.4,2.5,2.8c0.9,0.3,1.2,0.1,1.3-0.8c0.1-0.6,0.1-1.2,0.2-1.7
			C230.1,354.9,229.1,351.5,227.6,347.9z M176.5,319.1c-0.3-2-0.8-3.7-1.6-5.3c-0.4-0.7-0.9-1.4-1.5-1.9c-0.9-0.7-1.8-0.7-2.7,0
			c-1,0.8-1.5,1.8-1.6,3c-0.1,1.3,0.4,2.3,1.5,2.9C172.3,318.8,174.3,319,176.5,319.1z M142,328.9c1.7-2,3.5-3.9,5-6.1
			c1.1-1.7,2-3.5,2.4-5.5c0.1-0.6,0.2-1.2,0-1.7c-0.2-0.7-0.5-0.8-1.1-0.5c-0.6,0.2-1,0.6-1.4,1.1c-0.9,1-1.6,2.1-2.2,3.3
			c-1,2.2-1.8,4.4-2.3,6.8C142.2,327.1,141.9,328,142,328.9z"/>
		<path d="M243.4,162.1c0.1,0,0.2,0,0.2,0c3-3,6.7-5.1,10.2-7.3c1.7-1.1,1.7-1.1,1.9-3c0.4-3.4,1.1-6.7,2.6-9.7
			c0.6-1.2,1.3-2.3,2.3-3.2c2.3-2.1,5.4-2.3,7.9-0.4c3.2,2.4,3.8,6.1,1.6,9.4c-1.7,2.6-4.2,4.3-7,5.5c-1.7,0.8-1.7,0.7-1.7,2.6
			c0.2,5.6,1.8,10.9,4.6,15.8c1.2,2.1,2,2.1,3.4,0.1c1.2-1.6,2-3.4,2.8-5.3c0.8-2.1,1.7-4.1,2.5-6.2c0.3-0.8,0.4-1.6,0.4-2.4
			c-0.3-6.9,0.3-13.8,1.8-20.6c1.3-5.7,3.5-11,7.2-15.7c0.7-0.9,1.5-1.7,2.4-2.4c2-1.4,4.2-1,5.5,1c0.9,1.4,1.4,3,1.5,4.7
			c0.3,3.4-0.5,6.6-1.7,9.8c-1.2,3.2-2.9,6.2-4.8,9c-1.8,2.6-3.6,5.2-5.4,7.7c-0.5,0.6-0.7,1.3-0.7,2.1c0,6.7,0.6,13.2,1.7,19.8
			c1,5.7,2.4,11.2,4.6,16.5c0.5,1.2,1,2.5,1.9,3.5c0.6,0.7,0.7,0.8,1.3,0c0.8-0.9,1.5-2,2.1-3.1c1.2-2.3,2-4.8,2.8-7.3
			c1.8-5.5,3.6-10.9,5.4-16.4c0.3-0.8,0.4-1.5,0.3-2.3c-0.2-7.8,0.5-15.5,2.5-23.1c0.9-3.6,2.2-6.9,4.5-9.9c1-1.4,2.2-2.7,3.6-3.7
			c1.2-0.8,2.5-1.2,4-0.9c1.7,0.4,2.7,1.6,3.3,3.2c0.7,2,0.7,4.1,0.2,6.2c-0.7,3.3-2,6.4-3.6,9.4c-2.2,4-4.8,7.7-7.7,11.3
			c-0.6,0.7-0.8,1.4-0.8,2.2c-0.1,5,0.2,9.9,0.6,14.8c0.3,2.8,0.6,5.6,1,8.4c0.1,0.9,0.1,0.9,1,0.7c0.7-0.1,1.4-0.4,2.1-0.7
			c3.1-1.4,5.7-3.4,8-5.8c0.3-0.3,0.6-0.5,1-0.5c0.8,0,1.2,0.6,0.9,1.3c-0.2,0.4-0.5,0.7-0.7,1.1c-2.2,2.6-4.9,4.7-8,6.1
			c-0.2,0.1-0.4,0.1-0.6,0.4c0.7,0.6,1.4,1.1,2.1,1.7c3.7,3.4,6,7.5,6.9,12.4c0.8,4.4,0.7,8.7,0.1,13.1c-0.2,1.3-0.3,2.6-0.6,3.8
			c-0.3,1.3-0.9,2.5-2,3.4c-1.8,1.3-3.2,1.1-4.6-0.4c-0.8-0.9-1.5-1.9-2.1-3c-2.7-4.5-4.5-9.4-5.8-14.5c-1.7-6.4-3.1-13-4-19.6
			c-0.3-2.5-0.6-5-0.8-7.5c0-0.7-0.1-1.4-0.4-2.1c-0.1,0.3-0.2,0.7-0.4,1c-1.4,4.6-2.6,9.4-4.2,14c-0.8,2.3-1.8,4.5-3.1,6.6
			c-0.4,0.7-0.9,1.3-1.4,1.9c-1.4,1.4-3.2,1.7-5.1,0.9c-0.9-0.4-1.8-1-2.5-1.8c-1.6-1.6-2.8-3.5-3.7-5.5c-1.7-3.7-2.7-7.7-3.5-11.7
			c-0.8-3.8-1.3-7.7-1.7-11.6c0-0.3,0-0.6-0.3-0.9c-0.3,0.2-0.3,0.5-0.4,0.8c-0.7,1.8-1.3,3.6-2.1,5.4c-0.6,1.4-1.4,2.7-2.3,3.8
			c-2.7,3.1-6.2,3.2-9.1,0.2c-1.3-1.3-2.2-2.9-2.9-4.5c-1.9-4.4-3-8.9-3.1-13.7c0-0.2,0.1-0.5-0.1-0.7c-0.1,0-0.2,0-0.2,0
			c-2.8,1.8-5.8,3.5-8.3,5.7c-0.8,0.7-1.5,1.4-2.2,2.2c-0.4,0.5-0.5,0.9-0.3,1.5c0.9,3,1.7,6,2.5,9.1c0.9,3.3,1.6,6.6,1.3,10.1
			c-0.1,1.8-0.5,3.5-1.4,5.1c-2,3.5-6.8,3.4-9.1,0.9c-1.5-1.7-2.2-3.7-2.4-5.9c-0.3-2.6-0.1-5.2,0.6-7.8c0.8-3,1.8-5.8,3.3-8.5
			c0.3-0.4,0.3-0.8,0.1-1.3c-1.5-2.8-2.8-5.7-4-8.6c-0.1-0.1-0.1-0.3-0.4-0.4c-0.1,0.3-0.2,0.7-0.4,1c-1.9,6.1-3.6,12.2-5.4,18.3
			c-0.8,2.7-1.8,5.3-3,7.9c-0.6,1.3-1.3,2.6-2.2,3.8c-0.6,0.8-1.3,1.5-2.2,1.9c-1.1,0.5-2.1,0.4-3.1-0.2c-0.5-0.4-0.9-0.8-1.3-1.3
			c-2.1-2.7-3.2-5.7-3.7-9c-0.9-5.4-0.8-10.9-0.1-16.3c0.8-6.6,2.7-13,4.6-19.3c0.1-0.2,0.1-0.4,0.2-0.7c0.1-0.4-0.1-0.5-0.4-0.5
			c-0.2,0-0.3,0-0.5,0c-2.7,0.2-5.3,0.4-8,0.6c-0.9,0.1-0.9,0.1-0.8,0.9c0.8,4.8,0.6,9.5,0,14.3c-0.9,6.7-2.7,13.1-5.3,19.3
			c-1.2,2.8-2.6,5.5-4.4,8c-0.8,1.2-1.8,2.3-3,3.2c-2.2,1.6-4.5,1.2-6.1-0.9c-1.5-2-2.3-4.3-2.7-6.7c-0.6-3.6-0.5-7.1-0.1-10.7
			c0.4-3.9,1.2-7.7,2-11.6c-0.5,0.3-0.6,0.7-0.8,1c-2.6,4.6-5.2,9.2-7.9,13.8c-1,1.8-2.1,3.6-3.3,5.3c-0.5,0.6-1,1.2-1.6,1.7
			c-1.6,1.4-4.5,1.4-5.9-1c-1.1-1.9-1.6-4-2-6.1c-0.6-3.7-0.3-7.4,0.1-11.1c0.4-3.4,1.1-6.7,1.9-9.9c0.1-0.3,0.1-0.5,0.1-0.8
			c0-0.1-0.1-0.1-0.1-0.2c-0.9,0.2-1.8,0.7-2.6,1.1c-2.2,1.2-4.4,2.5-6.6,3.8c-0.4,0.3-0.6,0.5-0.5,1c1.1,7.5-0.5,14.7-3.2,21.6
			c-0.5,1.3-1.2,2.5-2,3.6c-1.3,1.5-2.8,2.6-4.9,2.6c-1.7,0-3-0.7-4.2-1.9c-1.9-2-3-4.4-3.6-7c-0.8-3.6-1-7.3-0.9-11
			c0-1.3,0.1-2.5,0.2-3.8c0-0.2,0.1-0.4-0.2-0.5c-0.3-0.1-0.4,0.2-0.5,0.3c-0.2,0.2-0.3,0.5-0.4,0.7c-4.1,6.7-8.6,13.1-13.6,19.2
			c-0.3,0.4-0.5,0.8-0.5,1.3c0,3.1-0.1,6.2-0.3,9.3c-0.6,7-1.4,14-3.5,20.8c-0.9,2.8-2,5.4-4,7.7c-1.8,2-4,3.2-6.7,2.9
			c-1.7-0.2-3.1-1-4.2-2.3c-1.7-2-2.3-4.4-2.4-7c-0.1-3.3,0.8-6.4,2-9.4c1.8-4.3,4.3-8.2,7.2-11.9c1.8-2.3,3.7-4.5,5.6-6.7
			c0.3-0.4,0.6-0.8,0.6-1.3c0.3-8.4,0.3-16.7,0.3-25.1c0-2.3-0.1-4.6-0.2-6.9c0-0.2,0-0.4-0.2-0.6c-0.4,0.2-0.5,0.6-0.7,0.9
			c-1.3,2.1-2.4,4.2-3.5,6.4c-2.5,5-5,10-7.8,14.9c-0.9,1.7-1.9,3.3-3,4.9c-0.6,0.9-1.3,1.8-2.1,2.5c-2.1,1.9-4.4,2.2-6.9,0.9
			c-1.3-0.7-2.4-1.6-3.3-2.6c-3.5-4-5.5-8.7-6.5-13.9c-0.9-4.9-0.4-9.8,0.6-14.6c0.3-1.3,0.5-2.7,1.1-4c0.5-1.1,0.9-1.5,1.6-1.4
			c0.8,0.1,1.2,0.6,1.3,1.8c0.1,1.6,0.1,3.1,0,4.7c-0.3,4.6-0.5,9.2,0.3,13.7c0.7,4.4,2.2,8.4,4.9,12c0.3,0.3,0.5,0.7,0.8,1
			c1.4,1.5,2.2,1.6,3.9,0.2c0.7-0.6,1.3-1.2,1.9-1.9c1.1-1.3,2.1-2.8,3-4.2c3-4.7,5.6-9.5,8.1-14.4c1.3-2.6,2.6-5.2,4-7.7
			c0.4-0.7,0.7-1.4,1.2-2c0.8-1.2,2-1.4,3.1-0.5c0.8,0.6,1.3,1.4,1.6,2.3c0.7,1.9,1.1,3.9,1.4,5.9c0.7,4.7,0.8,9.5,0.9,14.2
			c0.1,2,0.1,4,0.1,6c0,0.3,0,0.6,0.2,0.9c4.7-5.6,9-11.5,12.6-17.8c-0.4-0.4-1-0.6-1.4-0.9c-3.1-1.9-5.4-4.4-6.4-8
			c-1.6-6.1,2.3-12.2,8.6-13.4c5-1,9.3,0.8,12.9,4.1c3.4,3.1,5.3,7,6.5,11.4c0.1,0.4,0.2,0.8,0.3,1.2c0.5,0,0.9-0.3,1.2-0.5
			c2.2-1.4,4.4-2.8,6.6-4.1c0.7-0.4,1.3-0.9,2-1.2c2.2-1.1,4.4-0.1,5.2,2.2c0.4,1.3,0.3,2.6,0.1,4c-0.4,3.3-0.9,6.5-1.2,9.8
			c-0.3,4.1,0,8.1,0.4,12.1c0,0.3,0.1,0.5,0.2,0.9c0.6-0.4,0.9-0.9,1.3-1.4c2.5-3.2,4.5-6.6,6.5-10.1c2.7-4.7,5.2-9.6,8.2-14.2
			c0.3-0.4,0.5-0.9,0.9-1.3c0.6-0.8,1.4-1,2.3-0.5c1.2,0.6,1.7,1.7,1.8,3c0.1,2.1-0.1,4.2-0.3,6.2c-0.5,4.1-1.2,8.2-1.7,12.2
			c-0.5,3.9-0.6,7.7,0.1,11.6c0.1,0.6,0.3,1.1,0.6,1.7c0.6,1.1,1.3,1.2,2.3,0.4c0.8-0.6,1.3-1.4,1.8-2.3c0.9-1.5,1.6-3.1,2.3-4.7
			c2.9-6.7,5-13.7,6.1-20.9c0.7-4.4,0.9-8.8,0.3-13.3c-0.1-0.9-0.1-0.9-1.1-1c-2.4-0.1-4.7-0.4-6.9-1.4c-2.4-1.1-4.2-2.7-4.9-5.3
			c-0.2-0.8-0.2-1.6-0.1-2.5c0.5-2.4,2.7-3.9,5.2-3.4c1.8,0.4,3.4,1.3,4.7,2.5c2.1,2,3.4,4.5,4.3,7.2c0.3,1,0.1,1.1,1.6,1
			c3-0.3,5.9-0.7,8.9-1.1c2.5-0.3,4.2,1.1,4.5,3.5c0.3,2-0.2,4-0.6,5.9c-0.9,3.9-1.8,7.7-2.4,11.6c-0.8,5.6-1.3,11.2-0.6,16.8
			c0.2,1.9,0.4,3.8,0.9,5.7c0.2,0.6,0.3,1.2,0.7,1.7c0.3,0.5,0.6,0.6,1,0.2c0.6-0.4,1-1,1.3-1.6c1.1-1.9,1.9-3.9,2.6-5.9
			c2.4-6.7,4.4-13.6,6.6-20.4c0.4-1.2,0.8-2.4,1.2-3.6c0.2-0.5,0.2-1,0-1.6c-1-2.9-1.4-5.9-1.1-8.9c0.3-4.3,1.7-8.2,4.3-11.6
			c1-1.3,2.2-2.5,3.8-3.3c2.1-1.1,4.2-1.2,6.2,0.2c2.1,1.5,2.8,3.9,1.8,6.2c-0.5,1.3-1.3,2.5-2.2,3.6c-2.1,2.8-4.6,5.2-7.5,7.3
			c-0.6,0.4-0.7,0.8-0.6,1.5c0.3,1.9,0.8,3.7,1.6,5.4C240.9,156.8,242.5,159.3,243.4,162.1z M143.1,141c-0.7,0-1.3,0.1-2,0.2
			c-4,0.8-7.1,4.2-7.4,8.2c-0.4,4.3,2.2,7.7,5.7,9.7c0.3,0.2,0.6,0.1,0.8-0.2c0.6-1.4,1.6-2.7,1.9-4.3c0.3-1.2,1.1-1.5,2.2-1.1
			c1.5,0.5,2.1,1.7,2.2,3.2c0.1,1,0.1,2.1,0.2,3.2c0,0.8,0.1,0.8,0.8,0.7c3.3-0.5,6.3-1.7,9.3-3.3c0.4-0.2,0.5-0.5,0.4-0.9
			c-0.8-4.1-2.3-7.8-5.1-10.9C149.8,142.7,146.8,141.1,143.1,141z M119.7,190.6c-0.2-0.1-0.3,0-0.3,0.1c-3.4,4.1-6.6,8.3-8.9,13.1
			c-1.3,2.7-2.4,5.5-2.8,8.6c-0.3,2.1-0.1,4.2,0.8,6.2c0.5,1,1.1,1.9,2.1,2.5c0.9,0.5,1.4,0.5,2.1-0.2c0.6-0.6,1.1-1.3,1.5-2.1
			c0.6-1.2,1.1-2.4,1.4-3.7c2.2-7.2,3.3-14.5,4-21.9C119.6,192.2,119.8,191.4,119.7,190.6z M157.7,159.1c-0.5,0.1-0.8,0.3-1.2,0.5
			c-2.9,1.4-5.9,2.6-9.1,2.9c-0.5,0.1-0.6,0.3-0.6,0.8c-0.1,4.4-0.1,8.9,0.9,13.2c0.4,1.9,0.9,3.8,1.9,5.5c0.8,1.4,1.1,1.4,2.2,0.2
			c1-1.1,1.8-2.5,2.4-3.9c1.9-4,3-8.1,3.5-12.5C157.9,163.6,158.1,161.4,157.7,159.1z M318.1,216.9c0.5-0.7,0.6-1.3,0.7-2
			c0.8-4.5,0.7-9,0.1-13.5c-0.8-5.8-3.7-10.2-8.1-13.9c-0.4-0.3-0.8-0.7-1.4-0.9c0.2,1,0.4,1.9,0.5,2.9c1.3,6.4,3,12.6,4.8,18.9
			c0.6,2.3,1.2,4.5,2.2,6.7C317.2,215.8,317.5,216.5,318.1,216.9z M281.4,147.6c0.3,0,0.4-0.2,0.5-0.4c2-2.9,3.9-5.8,5.6-8.9
			c1.3-2.5,2.5-5.1,3.3-7.9c0.6-2,0.8-4.1,0.6-6.2c-0.1-0.9-0.4-1.8-0.8-2.6c-0.5-1-0.8-1.1-1.6-0.2c-0.6,0.6-1,1.2-1.4,1.9
			c-1.6,2.7-2.9,5.6-3.8,8.6c-1.2,3.9-1.7,8-2.1,12C281.5,145.2,281.3,146.4,281.4,147.6z M307.5,152.8c0.4-0.1,0.5-0.4,0.7-0.6
			c1.5-2,2.9-4.1,4.2-6.3c1.7-3,3.3-6,4.2-9.4c0.5-1.8,0.8-3.7,0.4-5.6c-0.1-0.7-0.3-1.5-1-1.7c-0.7-0.2-1.2,0.5-1.6,1
			c-1.2,1.3-2.1,2.8-2.8,4.5c-1.7,4-2.6,8.1-3.3,12.3C307.9,148.9,307.6,150.8,307.5,152.8z M240.5,170.4c-1.7,3.6-2.7,7.2-2.7,11.1
			c0,1.3,0.2,2.6,0.7,3.8c0.3,0.8,0.6,1.5,1.3,2.1c0.9,0.8,1.9,0.7,2.6-0.3c0.4-0.5,0.6-1,0.8-1.6c0.3-1,0.5-2.1,0.4-3.1
			c-0.1-4.2-1.3-8.1-2.9-11.9C240.7,170.5,240.7,170.5,240.5,170.4z M195.8,137.2c-0.1,0.4,0.1,0.9,0.3,1.3c0.4,1.1,1.3,1.9,2.3,2.4
			c2.1,1.2,4.5,1.5,6.9,1.6c0.7,0,0.5-0.4,0.4-0.8c-0.6-2-1.5-3.9-2.8-5.5c-0.8-0.9-1.7-1.7-2.9-2.2c-0.6-0.2-1.2-0.5-1.9-0.3
			C196.7,134.2,195.8,135.4,195.8,137.2z M238,143.9c0,0,0,0.2,0,0.3c0,0.3-0.1,0.6,0.1,0.8c0.4,0.2,0.6-0.2,0.8-0.4
			c1.2-1.1,2.3-2.3,3.4-3.6c1.4-1.6,2.7-3.3,3.6-5.2c0.4-0.8,0.6-1.6,0.4-2.5c-0.3-1.6-1.6-2.2-3-1.4c-0.9,0.5-1.5,1.2-2.1,2
			C239.1,136.8,238.2,140.2,238,143.9z M261.6,151.4c1.9-0.9,3.6-1.9,5-3.2c0.6-0.6,1.2-1.3,1.5-2.1c0.9-1.9,0.4-4.4-1.1-5.7
			c-1-0.9-1.8-0.8-2.6,0.2c-0.6,0.8-1,1.7-1.3,2.6C262.2,145.8,261.9,148.5,261.6,151.4z"/>
		<path d="M185.4,124.2c0.4-0.5,0.6-1.2,0.8-1.8c1.6-4.4,2.9-8.9,4.2-13.3c1.4-4.5,2.6-9,4.1-13.5c0.6-1.9,1.1-3.6,0.7-5.6
			c-0.2-1.1,0-2.2,0.2-3.3c0.1-0.7,0.4-1.3,1.2-1.6c0.8-0.2,1.4,0,2,0.5c0.5,0.4,0.7,1,0.9,1.6c0.8,2.7,1.4,5.6,1.8,8.4
			c1.2,7.4,2.8,14.7,5,21.9c0.1,0.2,0.1,0.4,0.4,0.5c0.6-1.6,1-3.2,1.4-4.8c1.1-4.4,2.1-8.9,3.1-13.4c0.1-0.5,0.1-0.8-0.2-1.2
			c-3.2-3.4-4.3-7.6-4.2-12.2c0.1-2.1,0.6-4,1.5-5.9c0.4-0.7,0.8-1.4,1.4-2c1.3-1.2,3-1.2,4.2,0.1c0.6,0.6,1,1.4,1.2,2.3
			c0.6,1.9,0.7,3.9,0.6,5.8c-0.2,3.4-0.7,6.7-1.2,10c0,0.1,0,0.2-0.1,0.3c-0.3,1.6,0,1.9,1.6,2c1.5,0.1,3-0.2,4.5-0.5
			c0.6-0.1,0.6-0.6,0.6-1c0.1-2.2,0.3-4.3,0.8-6.4c0.5-2.1,1.1-4.2,2.1-6.1c0.5-1,1.1-2,1.9-2.8c2.4-2.6,5.9-2.8,8.6-0.3
			c2.3,2.1,3,4.9,2.6,7.8c-0.6,5.2-4,8.6-9.3,9.8c-1,0.2-1,0.2-0.9,1.2c0.2,3.7,0.7,7.3,2.1,10.7c0.8,2,1.9,3.8,3.2,5.5
			c1.1,1.4,2.4,1.6,4,1.2c1.5-0.4,2.7-1.2,3.8-2.3c1.6-1.5,2.9-3.3,3.9-5.3c1.3-2.5,2.7-5,4-7.5c0.5-0.9,0.9-1.7,1.4-2.6
			c0.2-0.3,0.4-0.7,0.7-0.9c0.4-0.3,0.8-0.3,1.2,0c0.4,0.3,0.3,0.6,0.1,1c-1.8,3.7-3.3,7.7-5.2,11.3c-1.4,2.7-3.2,5.2-5.6,7.2
			c-1.8,1.5-3.8,2.4-6.1,2.6c-2.1,0.2-4-0.4-5.7-1.6c-1.3-1-2.3-2.2-3.2-3.6c-2.1-3.3-3.3-7-3.9-10.9c-0.2-1.5-0.4-3-0.5-4.6
			c0-0.7-0.1-0.7-0.8-0.6c-0.6,0.1-1.2,0.2-1.8,0.4c-1.4,0.3-2.7,0.3-4.1-0.1c-0.6-0.2-0.7,0-0.8,0.6c-0.5,3-1.1,5.9-1.6,8.9
			c-0.6,3-1.1,5.9-1.8,8.9c-0.2,0.8-0.4,1.5-0.7,2.2c-1.1,2.4-3.7,3-5.7,1.3c-0.8-0.6-1.3-1.5-1.8-2.3c-0.9-1.7-1.6-3.4-2.2-5.2
			c-1.6-5.1-2.6-10.3-3.3-15.5c0-0.3,0-0.6-0.3-0.8c-0.1,0.4-0.3,0.8-0.4,1.2c-2.1,7.5-4.2,15-6.1,22.5c-0.4,1.5-0.8,2.9-1.7,4.3
			c-1.3,2-3.6,2.4-5.5,0.9c-0.6-0.4-1-1-1.4-1.6c-0.6-1-1.2-2.1-1.6-3.3c-1.2-3.4-1.7-6.8-1.9-10.4c-0.2-4.1-0.1-8.2,0.4-12.3
			c0-0.1,0-0.1-0.1-0.3c-0.4,0.3-0.5,0.7-0.6,1.1c-0.9,2-1.9,4-3.3,5.7c-0.4,0.5-0.8,1-1.3,1.5c-1.9,1.8-4,1.8-6,0.2
			c-0.4-0.4-0.8-0.8-1.4-1.3c-0.4,1.7-0.7,3.3-1.1,4.9c-1,4.5-1.7,9-2.8,13.5c-0.5,2.1-1.1,4.2-2.1,6.2c-0.3,0.6-0.6,1.2-1,1.7
			c-1,1.3-2.5,1.7-4,1.1c-1.1-0.4-1.9-1.2-2.5-2.2c-1.4-2.1-2-4.4-2.3-6.8c-0.5-3.9-0.4-7.8-0.1-11.8c0.2-2.8,0.5-5.6,0.4-8.3
			c0-0.9-0.1-1.8-0.3-2.6c-0.6-0.1-1,0.3-1.3,0.5c-0.9,0.6-1.7,1.4-2.4,2.2c-3.1,3.8-5,8.2-5.4,13.2c-0.1,1-0.1,2-0.2,2.9
			c0,0.4-0.1,0.7-0.2,1c-0.3,1.3-1.3,1.9-2.6,1.6c-1.1-0.3-1.9-1-2.5-1.8c-0.7-1-1.3-2.1-1.7-3.2c-2.6-6.3-3.4-12.9-3.1-19.6
			c0.1-1.6,0.2-3.2,0.5-4.8c0.1-0.9,0.1-0.9-0.7-0.9c-8.5,0.8-15.3,4.4-19.9,11.8c-1,1.6-1.7,3.3-2.1,5.2c-0.2,1-0.2,2,0,3
			c0.1,0.3,0.3,0.7-0.1,0.9c-0.4,0.2-0.8,0.1-1.1-0.1c-0.4-0.3-0.6-0.8-0.8-1.3c-0.5-1.5-0.4-2.9-0.1-4.4c0.4-1.8,1.2-3.5,2.2-5.1
			c4.1-6.5,10-10.6,17.5-12.2c1.5-0.3,3-0.6,4.5-0.7c1.3-0.1,1.3-0.2,1.6-1.4c1.4-5.2,3.3-10.1,6.5-14.4c1.7-2.3,3.7-4.4,6.3-5.8
			c2.4-1.3,4.9-1.7,7.5-0.8c3.1,1.1,4.9,3.4,5.3,6.6c0.6,5-1.3,9.2-5.1,12.4c-2.7,2.3-5.9,3.5-9.2,4.3c-1.8,0.4-3.6,0.8-5.4,1
			c-0.6,0.1-0.9,0.3-1.1,1c-0.7,3.9-0.8,7.8-0.6,11.7c0.3,3.9,1,7.7,1.9,11.5c0.3-0.3,0.3-0.6,0.4-1c1.1-4.7,2.9-9.1,5.9-12.9
			c0.8-1.1,1.8-2.1,2.9-2.9c2.3-1.5,4.7-1.2,6.3,1c1,1.3,1.5,2.9,1.8,4.6c0.4,2,0.3,4,0.3,6c-0.1,3.9-0.2,7.8-0.1,11.7
			c0.1,2,0.3,4,0.5,6c0,0.4,0.2,0.8,0.3,1.3c0.6-0.5,0.8-1,1.1-1.5c1.1-2.1,1.7-4.3,2.3-6.5c1.5-6.1,2.8-12.2,4.4-18.3
			c0.1-0.6,0-1-0.2-1.5c-1.6-5.3-1-10.2,2-14.9c1.8-2.9,4.4-4.8,7.9-5.5c2.6-0.5,4.8,0.1,6.8,1.7c0.2,0.2,0.5,0.4,0.7,0.6
			c0,0,0.1,0,0.2,0c0.3-0.5,0.5-1.1,0.6-1.7c0.3-1.1,1.2-1.7,2.6-1.1c1.2,0.5,1.8,1.4,1.9,2.7c0.1,1.4-0.1,2.8-0.4,4.2
			c-0.6,3.4-1.3,6.7-1.7,10.1c-0.7,5.5-0.8,10.9-0.2,16.4c0.3,2.5,0.7,5,1.2,7.5C185.1,123.6,185.1,124,185.4,124.2z M136.8,90.1
			c0.2,0,0.4,0.1,0.5,0c2.6-0.4,5.2-0.9,7.7-1.9c2.6-1,5.1-2.3,6.9-4.5c2.1-2.6,3.1-5.5,2.6-8.9c-0.5-3.2-3.3-4.9-6.4-3.8
			c-1,0.4-1.9,0.9-2.7,1.6c-1.3,1.1-2.4,2.4-3.4,3.9c-2.3,3.4-3.6,7.1-4.7,11C137.2,88.4,136.9,89.2,136.8,90.1z M167.6,99.9
			c-0.1,0.8,0.1,2,0.3,3.2c0.1,0.7,0.3,1.4,0.5,2c0.7,1.9,1.1,2,2.5,0.6c1.2-1.2,2.2-2.7,3-4.2c2.3-4.2,4-8.7,5.9-13.2
			c0.2-0.5,0.1-0.9-0.3-1.2c-1.3-1.2-2.8-1.6-4.6-1c-2.3,0.8-3.9,2.4-5.1,4.5C168.3,93.3,167.6,96.3,167.6,99.9z M226.9,97.2
			c1.8-0.4,3.3-1.1,4.5-2.2c2.5-2.4,3.5-5.3,2.8-8.7c-0.2-1-0.7-1.8-1.5-2.4c-0.6-0.5-1-0.4-1.6,0.1c-0.6,0.5-1,1.1-1.3,1.8
			c-1.1,2.3-1.9,4.7-2.4,7.2C227.1,94.2,226.9,95.6,226.9,97.2z M212.2,80.2c-0.7,0.6-1,1.3-1.3,2c-1.6,4.4-1.4,8.7,0.4,13
			c0.1,0.2,0.1,0.6,0.5,0.5c0.1-0.8,0.3-1.5,0.4-2.3c0.5-3,1-6,0.8-9.1C213,82.8,212.8,81.5,212.2,80.2z"/>
		<path d="M305.6,226.3c-0.6,0.3-0.8,0.7-1,1c-1.5,2-2.9,4-4.4,6c-0.7,1-1.4,1.9-2.3,2.7c-2.4,2.3-5.4,2.1-7.5-0.5
			c-1.3-1.6-1.9-3.4-2.4-5.3c-0.1-0.4-0.2-0.8-0.3-1.3c-0.3,0.2-0.3,0.5-0.4,0.8c-1.3,4.4-2.4,8.8-4,13c-0.7,2-1.5,3.9-2.5,5.7
			c-0.5,0.9-1.1,1.7-1.8,2.4c-2.3,2.2-5.4,1.8-7.1-0.9c-1.2-1.9-1.5-4.1-1.7-6.3c-0.5-4.2-0.2-8.5,0.1-12.7c0.3-4.4,1-8.8,1.4-13.2
			c0.2-1.6,0.2-3.2,0.1-4.8c-0.1-1.1-0.2-1.2-1.3-1.2c-1.2,0-2.3,0.3-3.5,0.5c-0.4,0.1-0.6,0.3-0.7,0.8c-0.4,12.2-3.9,23.6-8.7,34.7
			c-0.8,1.8-1.8,3.6-3,5.2c-0.9,1.2-2.1,2-3.6,2.2c-2.2,0.2-3.8-0.8-4.9-2.7c-0.9-1.6-1.4-3.4-1.7-5.2c-0.7-4.4-0.7-8.8-0.4-13.3
			c0.4-4.7,1.2-9.3,1.9-14c0.2-1.4,0.2-2.8,0.1-4.2c-0.1-0.8-0.2-0.9-1-0.9c-0.5,0-1.1,0-1.6,0.1c-0.9,0.1-1,0.2-1,1.1
			c0,2.5-0.3,5-0.8,7.5c-1.1,5.6-2.7,11-5.1,16.1c-0.7,1.4-1.4,2.8-2.4,4c-1.1,1.4-2.4,2.6-4.2,3.1c-2,0.6-4,0.4-5.9-0.4
			c-3.9-1.6-6.6-4.4-8.5-8.1c-2.6-5.2-3.1-10.6-1.8-16.3c0.4-1.8,1.3-3.4,2.5-4.9c0.8-0.9,1.7-1.6,2.8-2c1.2-0.4,2.5-0.3,3.7,0.2
			c3.2,1.3,6.1,5.8,5.9,9.3c-0.1,2-1,3.6-2.4,5c-1.7,1.7-3.8,2.6-6.2,2.9c-0.2,0-0.5,0-0.7,0.2c0.9,4.3,3.2,7.8,6.8,10.3
			c1.2,0.9,2.4,0.7,3.6-0.1c1.2-0.8,2-1.9,2.7-3.1c1.4-2.2,2.5-4.6,3.4-7c1.6-4.1,2.9-8.3,3.6-12.6c0.2-1.5,0.4-3,0.3-4.6
			c-1.4,0.1-2.6,0.2-3.9,0c-1.7-0.3-3.2-1.1-4.3-2.5c-2.2-2.7-3.2-5.9-2.4-9.3c0.4-1.8,1.4-3.1,3.3-3.6c1.1-0.3,2.1,0,3.1,0.5
			c1.6,0.7,2.7,2,3.7,3.4c1.5,2.2,2.3,4.7,2.6,7.4c0.1,0.5,0.1,1,0.3,1.5c0.6-0.1,1.3-0.2,1.9-0.3c2-0.3,3.6,0.3,5,1.8
			c1.6,1.7,2.1,3.8,2.1,6.1c0,2.1-0.3,4.1-0.6,6.2c-0.6,4.8-1.1,9.5-1,14.3c0.1,3.1,0.5,6.1,1.3,9.1c0.1,0.4,0.2,0.9,0.5,1.3
			c0.5-0.3,0.8-0.8,1.1-1.3c1.6-2.4,2.9-5,4-7.7c2.9-7,5.2-14.2,6.5-21.7c0.4-2.1,0.6-4.2,0.7-6.3c0-0.9,0-1-0.9-0.8
			c-0.9,0.1-1.8,0.3-2.7,0.1c-2.9-0.6-5-2.9-5.5-6c-0.2-1.6-0.1-3.1,0.7-4.4c1.5-2.5,4.2-2.9,6.4-1c0.6,0.6,1.1,1.2,1.6,1.9
			c1,1.6,1.7,3.3,2.1,5.2c0.1,0.4,0.1,0.8,0.4,1.1c1.2-0.3,2.4-0.6,3.6-0.9c3.3-0.9,5.4,0.8,6.5,3.2c0.5,1.1,0.7,2.4,0.8,3.7
			c0.1,2.6-0.1,5.3-0.3,7.9c-0.4,5-0.9,10.1-0.8,15.2c0,2.8,0.4,5.6,1,8.3c0,0.2,0.1,0.4,0.2,0.7c0.6-0.7,1-1.4,1.3-2.1
			c1.3-2.5,2.2-5.2,3.2-7.8c1.9-5.2,3.4-10.4,5-15.7c0.2-0.5,0.2-1.1,0.2-1.6c0-2.8,0.2-5.6,0.6-8.5c0.2-1.4,0.4-2.7,1.1-3.9
			c0.6-1,1.6-1.4,2.6-1.1c0.7,0.2,1.2,0.7,1.2,1.4c0.1,0.8,0.2,1.6,0.2,2.5c0,2.9,0,5.7,0,8.6c0.1,4.1,0.4,8.2,1.2,12.2
			c0.1,0.7,0.3,1.3,0.5,1.9c0.4,1.2,0.7,1.3,1.7,0.4c0.5-0.5,1-1,1.4-1.5c0.7-0.9,1.3-1.8,1.9-2.7c1.7-2.4,3.3-4.9,5-7.3
			c0,0,0-0.1,0.1-0.1c1.3-2,3.1-2.2,4.7-0.4c0.9,1,1.3,2.3,1.6,3.6c0.3,1.6,0.5,3.2,0.6,4.8c0.4,4.4,0.9,8.8,0.5,13.3
			c-0.5,6.1-1.9,12-4.9,17.4c-1,1.7-2.1,3.3-3.6,4.7c-2.9,2.7-6.4,3.8-10.3,3c-2.1-0.4-3.9-1.6-5.1-3.4c-2.8-4.1-3.5-8.6-2-13.4
			c0.7-2.3,2.3-4,4.1-5.5c0.3-0.2,0.6-0.3,0.9-0.3c0.4,0,0.8,0.1,1,0.4c0.2,0.3,0.1,0.7-0.1,1c-0.4,0.5-0.7,1-1.1,1.4
			c-2.3,2.4-2.7,5.2-2.4,8.3c0.2,1.7,0.8,3.3,1.7,4.8c1.7,2.9,4.7,3.5,7.4,2.4c1.4-0.5,2.5-1.5,3.5-2.7c2.4-2.8,3.7-6.2,4.2-9.8
			c0.6-4.7,0.6-9.4,0.5-14.1C305.8,234.3,305.6,230.4,305.6,226.3z M237,213.4c0.4-0.1,0.9-0.1,1.3-0.2c1.5-0.2,1.5-0.2,1.4-1.7
			c-0.3-2.4-0.9-4.8-2.3-6.8c-0.6-0.8-1.3-1.6-2.2-2.1c-0.8-0.5-1.3-0.4-2,0.3c-0.6,0.7-0.9,1.4-1.1,2.3c-0.4,2.3,0.1,4.4,1.3,6.3
			C234.3,212.8,235.5,213.4,237,213.4z M218.9,226.6c0,0.9,0,1.7,0,2.6c0,0.7,0.2,0.8,0.8,0.6c1.5-0.4,2.8-1.1,4-2.2
			c0.9-0.9,1.6-1.8,1.8-3.1c0.5-2.3-1-5.6-3.1-6.7c-0.5-0.3-0.9-0.1-1.2,0.3c-0.8,0.8-1.2,1.7-1.5,2.7
			C219,222.7,218.9,224.7,218.9,226.6z M257.6,206.9c0,0.8,0.2,1.8,0.5,2.5c0.7,1.4,1.7,2,3.3,1.9c0.6-0.1,1.2-0.3,1.8-0.4
			c0.5-0.1,0.7-0.3,0.6-0.9c-0.2-1.1-0.5-2.1-0.9-3.2c-0.5-1.2-1.1-2.4-2-3.3c-0.8-0.8-1.4-0.8-2.2,0
			C257.9,204.5,257.6,205.6,257.6,206.9z"/>
		<path d="M206.6,209.2c-0.4,0.4-0.6,0.9-0.9,1.4c-1.7,3.3-3.3,6.6-5,9.9c-0.7,1.4-1.5,2.9-2.5,4.1c-1.6,2.1-3.3,2.5-5.7,1.4
			c-1.7-0.8-3-2.1-4.1-3.4c-1.7-2-3-4.3-4.4-6.5c-0.6-0.9-1.1-1.9-1.8-2.8c0.3,1.6,0.6,3.2,0.9,4.7c0.6,3.4,1,6.9,1.3,10.4
			c0.4,4.3,0.8,8.5,1.1,12.8c0.2,3.4,0.5,6.8,0.1,10.2c0,0.5-0.1,0.9-0.3,1.4c-0.2,0.5-0.6,0.8-1.2,0.9c-0.6,0-1.1-0.2-1.3-0.8
			c-0.2-0.4-0.3-0.9-0.3-1.4c-0.1-2.5-0.3-4.9-0.4-7.4c-0.2-4.1-0.5-8.2-0.9-12.3c-0.3-3.4-0.5-6.8-0.9-10.2
			c-0.5-4.2-1.4-8.3-2.3-12.4c-0.4-1.5-0.6-3.1-1-4.6c-0.1-0.6-0.2-1.2-0.1-1.9c0-1,0.5-1.5,1.5-1.6c1.1-0.1,1.9,0.4,2.7,1.1
			c0.7,0.6,1.2,1.4,1.7,2.1c2.2,3.2,4.1,6.7,6.2,10c1.6,2.5,3.1,5,4.9,7.4c0.9,1.2,1,1.2,2,0.1c1-1.1,1.8-2.3,2.5-3.6
			c1-1.7,1.9-3.3,2.9-5c1.8-3.4,3.7-6.7,5.8-9.8c0.7-1.1,1.4-2.2,2-3.3c0.6-1.1,1.3-1.4,2.4-1c1.1,0.4,1.8,1.1,2.2,2.3
			c0.3,1.1,0.1,2.3-0.1,3.4c-0.8,4.7-1.5,9.4-2,14.1c-2.8,27.2,2,30.2,1.9,39.7c0,3-3.2,1-4.8-2.1c-1.8-3.5-2.8-7.2-3.3-11.1
			c-0.9-6.7-0.8-13.4-0.3-20.1c0.4-5,0.9-10,1.7-15C206.7,209.9,206.8,209.6,206.6,209.2z"/>
		<path d="M146.9,204.7c0.6-1.7,1.1-3.2,1.6-4.8c0.2-0.5,0.3-1,0.5-1.4c0.4-0.8,1-1.1,1.9-1c1.4,0.3,2.2,1.1,2.5,2.5
			c0.3,1.3,0,2.5-0.2,3.7c-0.5,2.9-1.1,5.8-1.6,8.7c-1,5.9-1.4,11.9-0.9,17.9c0.3,3.9,0.8,7.8,1.5,11.7c0,0.3,0,0.6,0.4,0.7
			c0.4-0.5,0.6-1.2,0.8-1.8c1.6-4.2,2.8-8.5,4-12.8c0.5-1.7,1-3.4,1.4-5.1c0.2-0.7,0.4-1.4,0.8-1.9c0.3-0.5,0.9-0.7,1.4-0.4
			c0.5,0.3,0.5,0.7,0.3,1.2c-1.3,4.7-2.5,9.5-3.8,14.2c-0.6,2.2-1.2,4.3-1.9,6.4c-0.3,0.9-0.6,1.7-1.1,2.5c-1.1,1.6-2.8,2-4.4,0.9
			c-0.6-0.4-1.1-1-1.5-1.6c-1.6-2.3-2.6-4.7-3.1-7.4c-1-5.3-1.3-10.7-1-16.1c0-0.4,0-0.7,0-1.3c-0.4,0.5-0.5,0.9-0.7,1.3
			c-0.7,1.6-1.5,3.3-2.6,4.7c-0.4,0.6-0.9,1.1-1.4,1.5c-1.7,1.4-3.9,1.4-5.6,0c-1.1-0.9-1.8-2-2.4-3.3c-1.2-2.8-1.6-5.7-1.5-8.7
			c0.1-2.8,0.7-5.5,2.1-8c1-1.9,2.4-3.4,4.3-4.4c3-1.6,6.4-1.2,9,1C146.1,204,146.5,204.3,146.9,204.7z M135.3,217.4
			c0,0.5,0,1,0,1.5c0.2,2,0.4,4.1,1.3,5.9c0.3,0.7,0.5,0.7,1.2,0.3c1-0.8,1.7-1.7,2.3-2.8c2.7-4.4,4.3-9.3,5.8-14.2
			c0.1-0.3,0.1-0.6-0.1-0.9c-1.2-2-4-2.7-5.9-1.4c-1.5,1-2.4,2.3-3.1,3.9C135.7,212.1,135.3,214.7,135.3,217.4z"/>
		<path d="M149.2,260.8c0,1.9-0.1,3.8-0.2,5.6c0,0.9,0,0.9,0.9,0.9c2.2-0.1,4.4-0.1,6.6-0.2c0.9,0,0.9,0,0.9-0.9
			c0.1-2.3,0.3-4.5,0.7-6.8c0.2-1.4,0.6-2.8,1.3-4.1c0.4-0.9,1-1.5,2.1-1.4c1,0.1,1.6,0.6,1.8,1.6c0.1,0.5,0.1,1,0.1,1.5
			c0,3-0.1,6-0.2,8.9c0,1,0,1,1,1.1c0.4,0,0.8,0.1,1.2,0.1c0.5,0,0.9,0.2,1.3,0.6c0.4,0.4,0.8,0.9,0.5,1.6c-0.2,0.6-0.8,0.7-1.4,0.7
			c-0.7,0-1.3,0-2,0c-0.6,0-0.8,0.2-0.8,0.7c0,2.3,0,4.6,0.1,6.8c0.3,5.6,1.2,11.1,2.6,16.5c0.2,0.9,0.2,1.8,0.2,2.7
			c0,0.7-0.3,1.1-1,1.3c-1,0.3-2.3,0-2.9-1c-0.6-0.9-1.2-1.8-1.6-2.9c-1.5-3.8-2.3-7.8-2.8-11.9c-0.5-3.7-0.5-7.4-0.5-11.2
			c0-0.1,0-0.2,0-0.4c0-0.7,0-0.7-0.9-0.7c-1.8,0.1-3.6,0.1-5.4,0.1c-2.1,0-2.1,0-2.1,2c-0.2,5.4,0.5,10.8,1.4,16.2
			c0.3,1.7,0.7,3.5,1,5.2c0.1,0.3,0.1,0.6,0.1,0.9c0,1.9-1.4,2.9-3.2,2.1c-1.2-0.5-1.9-1.4-2.2-2.6c-0.9-2.9-1.7-5.9-2.2-8.9
			c-0.8-4.5-1.1-9.1-0.9-13.7c0-1,0-1-0.9-1c-0.6,0-1.2-0.1-1.7-0.2c-0.4-0.1-0.7-0.3-1-0.7c-0.4-0.6-0.3-1.1,0.4-1.4
			c0.7-0.3,1.5-0.3,2.3-0.4c1.1-0.1,1.1-0.1,1.2-1.3c0.3-3,0.5-6.1,1.1-9.1c0.2-1.2,0.5-2.3,1-3.4c0.4-0.8,0.9-1.3,1.8-1.3
			c1.3,0,2.1,0.6,2.1,2.1c0,1.8,0,3.7,0,5.5C149.2,260.4,149.2,260.6,149.2,260.8z"/>
		<path d="M197.6,294.2c1.7-0.5,3.2-0.9,4.8-1.4c0.7-0.2,1.3-0.2,1.9,0.3c0.5,0.4,0.6,0.9,0.1,1.4c-0.5,0.5-1.1,0.8-1.7,1
			c-1.6,0.5-3.2,1.1-4.6,2c-1.5,0.9-3.2,0.5-4.3-0.8c-0.5-0.6-0.9-1.4-1.2-2.2c-1.1-3-1.6-6.1-1.8-9.3c-0.5-6.8-0.1-13.6,0.4-20.5
			c0.1-2.1,0.3-4.2,0.5-6.3c0.4-2.6,1.8-4.3,4.4-4.9c1.5-0.3,3.1-0.7,4.6-0.4c0.6,0.1,1.1,0.3,1.5,0.7c0.7,0.7,0.5,1.3-0.3,1.6
			c-1.1,0.4-2.2,0.6-3.3,0.7c-0.2,0-0.3,0-0.5,0c-1.4,0.2-1.4,0.2-1.3,1.6c0.2,3.8,0,7.5-0.1,11.3c-0.1,3.3-0.1,6.5-0.2,9.8
			c0,0.4,0,0.8,0,1.2c0,0.7,0.1,0.8,0.8,0.6c1.1-0.2,2.2-0.4,3.3-0.4c0.3,0,0.6,0,0.8,0c0.5,0.1,0.9,0.3,1,0.9
			c0.1,0.5-0.4,0.8-0.8,0.9c-0.9,0.3-1.8,0.6-2.7,0.8c-0.5,0.1-1,0.2-1.5,0.2c-0.7,0-0.8,0.3-0.7,0.9c0.2,2.5,0.4,5,0.6,7.5
			C197.3,292.4,197.2,293.3,197.6,294.2z"/>
		<path d="M103.8,268.8c-0.1-6.1-0.1-10.7,0.4-15.2c0.1-0.8,0.2-1.6,0.5-2.4c0.4-1.1,1.4-1.6,2.6-1.2c1,0.3,1.6,0.9,1.9,1.9
			c0.3,1.2,0.4,2.4,0.4,3.6c0,4.9-0.1,9.9,0.1,14.8c0.2,5.9,0.6,11.8,1.6,17.6c0.2,1.5,0.5,2.9,0.9,4.4c0.4,1.2,0.5,1.3,1.7,1.3
			c1.7,0,3.3-0.6,4.9-1.2c0.7-0.3,1.3-0.3,1.9,0.1c0.8,0.5,0.8,1.2,0,1.8c-0.3,0.2-0.5,0.3-0.8,0.4c-1.8,0.4-3.6,1-5.5,1.4
			c-2.2,0.4-4-0.2-5.6-1.7c-1.2-1.2-2-2.6-2.5-4.2c-1-2.8-1.5-5.8-1.9-8.7C104,276.6,103.9,271.8,103.8,268.8z"/>
		<path d="M169.6,270.4c0-4.2,0.1-8.2,0.6-12.2c0.1-1,0.3-2,0.6-3c0.4-1.2,1.1-1.7,2.2-1.6c1.1,0.1,1.8,0.8,2,2
			c0.1,0.5,0.1,1.1,0.1,1.6c0.3,5.9,0.3,11.9,0.5,17.8c0.2,4.4,0.7,8.8,1.3,13.1c0.2,1,0.4,2.1,0.5,3.1c0.1,0.5,0.3,0.6,0.7,0.4
			c1-0.3,2-0.6,3-1c0.7-0.2,1.4-0.5,2.1-0.7c0.5-0.1,0.9,0,1.3,0.1c0.4,0.2,0.7,0.5,0.8,1c0,0.5-0.3,0.7-0.7,0.9
			c-0.5,0.3-1.1,0.5-1.6,0.7c-1.4,0.5-2.9,1-4.3,1.5c-3,1-5.4-0.1-6.5-3.1c-1-2.8-1.6-5.7-1.9-8.6
			C169.7,278.5,169.7,274.4,169.6,270.4z"/>
		<path d="M131.8,264.9c0.2,6.2,0.4,11,0.7,15.8c0.3,3.9,0.9,7.7,2,11.4c0,0.1,0.1,0.2,0.1,0.3c0.3,0.8,0.4,1.6-0.4,2.3
			c-0.7,0.7-1.6,0.7-2.5,0.4c-1.1-0.3-1.9-1.1-2.3-2.2c-0.8-2-1.3-4.1-1.7-6.2c-1.5-7.5-1.4-15.1-1-22.8c0.2-3.1,0.4-6.1,1-9.1
			c0.1-0.7,0.3-1.3,0.6-1.9c0.3-0.7,0.9-1,1.7-1c0.8,0.1,1.3,0.5,1.6,1.2c0.2,0.5,0.2,1,0.2,1.5
			C131.8,258.5,131.8,262.4,131.8,264.9z"/>
		<path d="M202.8,314.4c-1.1,0-1.9-0.4-2.6-1.1c-1-0.9-1.2-2.1-0.7-3.2c0.4-1,1.5-1.6,2.7-1.5c1,0.1,1.8,0.4,2.6,0.9
			c0.9,0.6,1.2,1.5,1,2.6c-0.2,1.1-1.2,2-2.3,2.2C203.2,314.4,203,314.4,202.8,314.4z"/>
	</g>
</g>
</svg>
