<?xml version="1.0" encoding="UTF-8" standalone="no"?>
<!-- Created with Inkscape (http://www.inkscape.org/) -->

<svg
   xmlns:dc="http://purl.org/dc/elements/1.1/"
   xmlns:cc="http://creativecommons.org/ns#"
   xmlns:rdf="http://www.w3.org/1999/02/22-rdf-syntax-ns#"
   xmlns:svg="http://www.w3.org/2000/svg"
   xmlns="http://www.w3.org/2000/svg"
   xmlns:sodipodi="http://sodipodi.sourceforge.net/DTD/sodipodi-0.dtd"
   xmlns:inkscape="http://www.inkscape.org/namespaces/inkscape"
   width="131.35359mm"
   height="295.02405mm"
   viewBox="0 0 131.35359 295.02405"
   version="1.1"
   id="svg6921"
   inkscape:version="0.92.3 (2405546, 2018-03-11)"
   sodipodi:docname="tornade.svg">
  <defs
     id="defs6915" />
  <sodipodi:namedview
     id="base"
     pagecolor="#ffffff"
     bordercolor="#666666"
     borderopacity="1.0"
     inkscape:pageopacity="0.0"
     inkscape:pageshadow="2"
     inkscape:zoom="0.49497475"
     inkscape:cx="-271.05314"
     inkscape:cy="576.55872"
     inkscape:document-units="mm"
     inkscape:current-layer="layer1"
     showgrid="false"
     inkscape:window-width="1600"
     inkscape:window-height="845"
     inkscape:window-x="0"
     inkscape:window-y="31"
     inkscape:window-maximized="1" />
  <metadata
     id="metadata6918">
    <rdf:RDF>
      <cc:Work
         rdf:about="">
        <dc:format>image/svg+xml</dc:format>
        <dc:type
           rdf:resource="http://purl.org/dc/dcmitype/StillImage" />
        <dc:title />
      </cc:Work>
    </rdf:RDF>
  </metadata>
  <g
     inkscape:label="Calque 1"
     inkscape:groupmode="layer"
     id="layer1"
     transform="translate(-24.407256,-1.9551923)">
    <g
       id="g6789"
       transform="matrix(3.6249551,-0.03514287,0.03514287,3.6249551,-93.51121,-70.299679)"
       inkscape:label="tornade">
      <g
         inkscape:label="cornes"
         id="g6751">
        <g
           class="buckhorn-left"
           id="g6743">
          <path
             style="fill:none;stroke:#492d15;stroke-width:3.34500003;stroke-linecap:round"
             inkscape:connector-curvature="0"
             d="m 57.429287,22.181611 c 4.851885,7.191707 -1.520414,11.918157 -1.520414,11.918157"
             id="path6739" />
          <path
             style="stroke:#492d15;stroke-width:2.94000006;stroke-linecap:round"
             inkscape:connector-curvature="0"
             d="m 60.116205,28.699026 c 3.562098,0.07416 4.064285,-3.555483 4.064285,-3.555483"
             id="path6741" />
        </g>
        <g
           class="buckhorn-right"
           id="g6749"
           inkscape:label="g6611">
          <path
             style="fill:none;stroke:#492d15;stroke-width:3.34500003;stroke-linecap:round"
             inkscape:connector-curvature="0"
             d="m 42.566606,22.210021 c -4.851885,7.191707 1.520414,11.918157 1.520414,11.918157"
             id="path6745" />
          <path
             style="stroke:#492d15;stroke-width:2.94000006;stroke-linecap:round"
             inkscape:connector-curvature="0"
             d="m 39.879688,28.727436 c -3.562098,0.07416 -4.064285,-3.555483 -4.064285,-3.555483"
             id="path6747" />
        </g>
      </g>
      <path
         inkscape:label="corps"
         id="path6753"
         d="M 50,83.597815 V 50"
         class="body"
         inkscape:connector-curvature="0"
         style="fill:#e0b455;fill-opacity:1;stroke:#e0b455;stroke-width:35.90000153;stroke-linecap:round"
         sodipodi:nodetypes="cc" />
      <g
         sodipodi:insensitive="true"
         inkscape:label="oreilles"
         id="g6759"
         class="other">
        <path
           id="path6755"
           d="M 40.874443,35.288871 32.61449,32.212679 c -1.419903,3.478451 2.48209,8.081656 8.259953,3.076192 z"
           class="ear-left"
           inkscape:connector-curvature="0"
           style="fill:#e0b455" />
        <path
           id="path6757"
           d="m 58.870131,35.241419 8.259953,-3.076192 c 1.419903,3.478451 -2.48209,8.081656 -8.259953,3.076192 z"
           class="ear-right"
           inkscape:connector-curvature="0"
           style="fill:#e0b455" />
      </g>
      <g
         style="fill:#e0b455;fill-opacity:1"
         inkscape:label="yeux"
         id="g6765">
        <circle
           style="fill:#e0b455;fill-opacity:1"
           class="eye-left"
           cx="48.200001"
           cy="37.799999"
           r="1.4"
           id="circle6761" />
        <circle
           style="fill:#e0b455;fill-opacity:1"
           inkscape:label="circle6621"
           class="eye-right"
           cx="51.799999"
           cy="37.799999"
           r="1.4"
           id="circle6763" />
      </g>
      <g
         inkscape:label="visage"
         id="g6787"
         class="other">
        <g
           id="g6771"
           class="buckhorn-right"
           style="opacity:0">
          <path
             id="path6767"
             d="m 42.566606,22.210021 c -4.851885,7.191707 1.520414,11.918157 1.520414,11.918157"
             inkscape:connector-curvature="0"
             style="fill:none;stroke:#492d15;stroke-width:3.34500003;stroke-linecap:round" />
          <path
             id="path6769"
             d="m 39.879688,28.727436 c -3.562098,0.07416 -4.064285,-3.555483 -4.064285,-3.555483"
             inkscape:connector-curvature="0"
             style="stroke:#492d15;stroke-width:2.94000006;stroke-linecap:round" />
        </g>
        <g
           id="g6777"
           class="buckhorn-left"
           style="opacity:0">
          <path
             id="path6773"
             d="m 57.429287,22.181611 c 4.851885,7.191707 -1.520414,11.918157 -1.520414,11.918157"
             inkscape:connector-curvature="0"
             style="fill:none;stroke:#492d15;stroke-width:3.34500003;stroke-linecap:round" />
          <path
             id="path6775"
             d="m 60.116205,28.699026 c 3.562098,0.07416 4.064285,-3.555483 4.064285,-3.555483"
             inkscape:connector-curvature="0"
             style="stroke:#492d15;stroke-width:2.94000006;stroke-linecap:round" />
        </g>
        <circle
           id="circle6779"
           r="1.4"
           cy="37.799999"
           cx="48.200001"
           class="eye-left" />
        <circle
           id="circle6781"
           r="1.4"
           cy="37.799999"
           cx="51.799999"
           class="eye-right" />
        <circle
           id="circle6783"
           r="8"
           cy="48.199997"
           cx="50"
           class="nose"
           style="fill:#35812a;fill-opacity:1"
           inkscape:label="nez" />
        <path
           id="path6785"
           d="m 49.5,58.4 h 1"
           class="mouth"
           inkscape:connector-curvature="0"
           style="stroke:#e5172e;stroke-width:1.10000002;stroke-linecap:round" />
        <g
           id="g6877"
           transform="matrix(9.228549e-4,8.9468054e-6,1.0348751e-5,-0.00106747,44.094262,54.709306)"
           style="fill:#ffffff;fill-opacity:1;stroke:none">
          <path
             id="path6861"
             d="m 8870,11409 c 0,-6 33,-44 73,-83 105,-103 171,-133 467,-211 361,-96 831,-288 1193,-488 448,-247 754,-510 929,-798 165,-272 185,-596 53,-886 -83,-181 -179,-314 -390,-539 l -120,-128 -7,90 c -23,269 -108,515 -250,722 -101,146 -293,329 -473,449 -293,196 -742,369 -1230,474 -150,32 -455,86 -455,81 0,-3 18,-29 40,-59 84,-111 253,-235 640,-468 281,-170 461,-291 573,-385 293,-245 385,-484 287,-738 -93,-242 -378,-525 -714,-708 l -68,-37 8,54 c 5,30 9,119 9,199 -1,166 -18,247 -81,373 -174,347 -576,574 -960,542 l -88,-7 55,-52 c 30,-28 112,-100 184,-161 203,-173 294,-296 330,-446 27,-116 14,-214 -44,-327 -132,-254 -520,-488 -1042,-626 -800,-211 -1789,-228 -2689,-46 -618,125 -992,318 -1116,577 -86,178 -45,394 101,538 83,82 183,140 403,231 287,118 372,166 462,258 54,56 58,56 -160,15 -662,-122 -1105,-324 -1279,-584 -121,-181 -126,-377 -16,-612 24,-51 42,-93 41,-93 -17,0 -284,98 -339,125 -281,133 -540,353 -629,532 -43,86 -43,88 -43,192 0,101 2,110 36,181 116,244 371,441 1024,790 283,152 497,273 543,308 l 35,27 -69,12 c -99,18 -388,17 -515,-1 -795,-113 -1496,-520 -1741,-1011 -73,-146 -103,-275 -101,-442 0,-68 -2,-123 -4,-123 -14,0 -132,78 -210,139 -175,136 -317,309 -384,469 -47,115 -61,198 -57,337 4,102 10,134 37,217 72,211 226,409 461,588 448,342 1067,617 1797,800 211,52 449,102 643,135 85,14 167,28 183,31 27,6 27,6 27,89 v 83 l -37,-4 c -21,-2 -105,-8 -188,-14 C 2841,10905 1680,10565 814,10054 395,9807 132,9517 34,9194 11,9117 7,9087 6,8970 c 0,-112 3,-149 22,-215 100,-352 435,-694 917,-937 183,-92 345,-158 618,-253 l 209,-72 47,-89 c 265,-502 755,-875 1631,-1241 1099,-460 2250,-789 3345,-957 505,-78 861,-107 1388,-113 425,-5 651,2 952,33 253,25 1069,143 1280,185 855,169 1316,503 1515,1097 22,64 38,118 36,119 -1,2 -104,-48 -227,-110 -871,-438 -1713,-661 -2864,-759 -203,-17 -1046,-17 -1265,0 -769,61 -1373,158 -2075,333 -931,233 -2071,662 -2585,974 -121,73 -430,279 -425,283 1,2 49,-10 106,-27 783,-227 1748,-379 2786,-441 865,-51 2217,-23 2963,60 1098,124 2060,377 2985,786 839,371 1280,788 1412,1336 24,99 24,325 0,425 -62,262 -194,481 -428,709 -163,158 -317,273 -587,436 -706,427 -1715,752 -2677,863 -77,8 -157,18 -177,21 -27,4 -38,2 -38,-7 z"
             inkscape:connector-curvature="0"
             style="fill:#ffffff;fill-opacity:1" />
          <path
             id="path6863"
             d="m 6036,8214 c -458,-47 -804,-120 -1073,-225 l -105,-41 6,-31 c 16,-77 80,-181 166,-268 200,-202 480,-297 973,-331 195,-13 496,-2 752,27 188,22 603,92 720,122 252,64 401,191 399,340 -2,120 -124,217 -370,292 -174,53 -233,61 -804,116 -187,18 -487,18 -664,-1 z"
             inkscape:connector-curvature="0"
             style="fill:#ffffff;fill-opacity:1" />
          <path
             id="path6865"
             d="m 12234,7982 c -103,-85 -305,-234 -444,-328 -894,-601 -1929,-958 -3273,-1129 -814,-103 -1870,-165 -2172,-127 -55,7 -235,31 -400,52 -409,53 -496,61 -702,61 -182,0 -273,-8 -401,-36 -80,-16 -209,-58 -251,-80 l -26,-13 25,-6 c 67,-15 629,-95 990,-140 824,-104 1463,-148 2165,-148 845,0 1533,69 2270,227 1079,232 1693,550 2030,1050 56,84 155,284 184,375 24,73 72,282 67,287 -2,2 -30,-18 -62,-45 z"
             inkscape:connector-curvature="0"
             style="fill:#ffffff;fill-opacity:1" />
          <path
             id="path6867"
             d="m 2605,6403 c 87,-151 265,-385 417,-549 869,-941 2272,-1483 4278,-1654 530,-45 1147,-63 1935,-57 650,4 727,9 991,57 396,71 697,227 880,454 75,93 163,263 194,376 22,79 52,251 46,258 -2,2 -62,-32 -133,-74 -587,-354 -1268,-557 -2103,-625 -187,-16 -727,-16 -945,0 -1037,72 -2119,324 -3329,777 -434,163 -598,239 -926,432 -102,59 -279,164 -395,232 -262,153 -477,263 -642,328 -112,44 -261,92 -286,92 -5,0 3,-21 18,-47 z"
             inkscape:connector-curvature="0"
             style="fill:#ffffff;fill-opacity:1" />
          <path
             id="path6869"
             d="m 4687,4303 -37,-4 77,-90 c 459,-537 1362,-977 2288,-1114 376,-56 856,-60 1165,-9 385,63 712,183 978,361 98,66 229,172 291,237 l 35,36 h -130 c -134,0 -409,-16 -833,-50 -443,-34 -664,-43 -956,-37 -570,12 -765,56 -1575,355 -519,191 -718,251 -962,291 -129,21 -277,31 -341,24 z"
             inkscape:connector-curvature="0"
             style="fill:#ffffff;fill-opacity:1" />
          <path
             id="path6871"
             d="m 4927,3503 c 19,-191 112,-361 303,-554 118,-119 324,-286 479,-391 449,-301 1116,-441 1731,-362 469,60 841,231 1120,513 l 94,96 -554,6 c -585,6 -729,11 -1005,35 -840,70 -1456,261 -2062,640 -55,35 -103,64 -106,64 -2,0 -2,-21 0,-47 z"
             inkscape:connector-curvature="0"
             style="fill:#ffffff;fill-opacity:1" />
          <path
             id="path6873"
             d="m 4990,2468 c 0,-121 34,-222 115,-343 126,-190 453,-462 692,-576 202,-96 409,-146 643,-156 423,-16 807,127 1087,405 71,71 160,179 152,186 -10,9 -284,27 -555,36 -696,24 -893,40 -1139,95 -307,68 -639,212 -912,396 -40,27 -75,49 -78,49 -3,0 -5,-42 -5,-92 z"
             inkscape:connector-curvature="0"
             style="fill:#ffffff;fill-opacity:1" />
          <path
             id="path6875"
             d="m 4790,1391 c 0,-17 60,-181 101,-274 79,-183 234,-424 397,-617 101,-120 309,-323 432,-422 l 95,-77 6,27 c 4,15 14,63 22,107 34,186 117,332 314,554 164,185 261,307 311,391 24,40 42,74 40,76 -2,2 -55,-1 -118,-6 -242,-20 -546,-10 -755,26 -204,34 -481,106 -724,189 -114,38 -121,40 -121,26 z"
             inkscape:connector-curvature="0"
             style="fill:#ffffff;fill-opacity:1" />
        </g>
      </g>
    </g>
  </g>
</svg>
